<svg width="32" height="32" xmlns="http://www.w3.org/2000/svg">

 <g>
  <title>background</title>
  <rect fill="none" id="canvas_background" height="402" width="582" y="-1" x="-1"/>
 </g>
 <g>
  <title>Layer 1</title>
  <g id="svg_1" fill-rule="evenodd" fill="none">
   <path id="svg_2" d="m22.371999,13.107001c-0.43,0.18 -0.892,0.303 -1.377,0.357c0.495,-0.28 0.875,-0.725 1.054,-1.255c-0.463,0.26 -0.976,0.45 -1.522,0.55a2.459,2.459 0 0 0 -1.75,-0.715c-1.323,0 -2.397,1.015 -2.397,2.268c0,0.178 0.021,0.35 0.062,0.517c-1.992,-0.095 -3.758,-0.998 -4.94,-2.37a2.166,2.166 0 0 0 -0.325,1.14c0,0.787 0.423,1.482 1.067,1.888a2.491,2.491 0 0 1 -1.086,-0.283l0,0.028c0,1.1 0.826,2.016 1.922,2.225a2.53,2.53 0 0 1 -1.082,0.038c0.305,0.902 1.19,1.557 2.24,1.576a4.985,4.985 0 0 1 -2.978,0.97c-0.193,0 -0.384,-0.01 -0.572,-0.03a7.066,7.066 0 0 0 3.675,1.018c4.409,0 6.82,-3.456 6.82,-6.454c0,-0.098 -0.003,-0.196 -0.007,-0.294c0.468,-0.32 0.874,-0.719 1.196,-1.174" fill-rule="nonzero" fill="#ffffff"/>
  </g>
 </g>
</svg>