<?xml version="1.0" encoding="UTF-8"?>
<svg width="87px" height="96px" viewBox="0 0 87 96" version="1.1" xmlns="http://www.w3.org/2000/svg" xmlns:xlink="http://www.w3.org/1999/xlink">
    <title>Group 38</title>
    <defs>
        <polygon id="path-1" points="0 0.380683397 86.7130491 0.380683397 86.7130491 37.5715354 0 37.5715354"></polygon>
    </defs>
    <g id="Website" stroke="none" stroke-width="1" fill="none" fill-rule="evenodd">
        <g id="Desktop---Algo-Foundation-Home" transform="translate(-512.000000, -1938.000000)">
            <g id="Section---Algorand-Protocol" transform="translate(70.000000, 1772.000000)">
                <g id="Group-38" transform="translate(442.000000, 166.000000)">
                    <path d="M10.0355426,31.5949367 C14.2417812,31.5949367 17.6433566,28.2003315 17.6433566,23.9997568 C17.6433566,19.8055054 14.2417812,16.4050633 10.0355426,16.4050633 C5.85168267,16.4050633 2.43356643,19.8055054 2.43356643,23.9997568 C2.43356643,28.2003315 5.85168267,31.5949367 10.0355426,31.5949367" id="Fill-1" fill="#F9D6FF"></path>
                    <path d="M10.3398975,32.2025316 C5.64121975,32.2025316 1.82517483,28.386819 1.82517483,23.696453 C1.82517483,19.0050851 5.64121975,15.1898734 10.3398975,15.1898734 C15.0440949,15.1898734 18.8601399,19.0050851 18.8601399,23.696453 C18.8601399,28.386819 15.0440949,32.2025316 10.3398975,32.2025316 M10.3398975,16.5584604 C6.39640024,16.5584604 3.19604067,19.7590102 3.19604067,23.696453 C3.19604067,27.6333948 6.39640024,30.839956 10.3398975,30.839956 C14.2894162,30.839956 17.4897758,27.6333948 17.4897758,23.696453 C17.4897758,19.7590102 14.2894162,16.5584604 10.3398975,16.5584604" id="Fill-3" fill="#A12CC5"></path>
                    <path d="M43.4937619,86.8860759 C64.8264645,86.8860759 82.1328671,69.611344 82.1328671,48.3040467 C82.1328671,26.996251 64.8264645,9.72151899 43.4937619,9.72151899 C22.1675469,9.72151899 4.86713287,26.996251 4.86713287,48.3040467 C4.86713287,69.611344 22.1675469,86.8860759 43.4937619,86.8860759" id="Fill-5" fill="#FFFFFF"></path>
                    <path d="M43.1898714,88.1012658 C21.7244534,88.1012658 4.25874126,70.3818265 4.25874126,48.6043357 C4.25874126,26.8278477 21.7244534,9.11392405 43.1898714,9.11392405 C64.667155,9.11392405 82.1328671,26.8278477 82.1328671,48.6043357 C82.1328671,70.3818265 64.667155,88.1012658 43.1898714,88.1012658 M43.1898714,10.4778064 C22.4621,10.4778064 5.60400699,27.5824958 5.60400699,48.6043357 C5.60400699,69.632694 22.4621,86.7373835 43.1898714,86.7373835 C63.929014,86.7373835 80.7826574,69.632694 80.7826574,48.6043357 C80.7826574,27.5824958 63.929014,10.4778064 43.1898714,10.4778064" id="Fill-7" fill="#A12CC5"></path>
                    <path d="M59.8493312,30.891683 C67.6369564,29.9514387 73.8331199,30.3413082 78.013366,31.7744623 C80.4067424,32.6002722 82.1871809,33.7812745 83.2700872,35.260995 C84.4316515,36.8150235 84.8328561,38.6667796 84.3915805,40.7483951 C84.0314362,42.5719141 83.0064102,44.573277 81.2764314,46.7064128 C81.2596115,45.6452942 81.1621549,44.573277 81.0533201,43.5007645 C81.7523364,42.3707871 82.1871809,41.3101638 82.3815994,40.3352425 C82.6853475,38.8500727 82.4162287,37.5605808 81.6375651,36.4880682 C80.7837066,35.3526416 79.3411506,34.4178466 77.3257279,33.7297542 C73.4319153,32.3882466 67.5627509,32.0380081 60.11845,32.9326768 C50.0868489,34.1429069 39.1435089,37.3827369 29.5526887,41.6371192 C19.9950137,45.8751537 11.8239932,51.099008 7.3058645,56.3109731 C5.42203291,58.4559982 4.36336704,60.3994008 4.00223336,62.0970915 C3.69848531,63.5763166 3.96166766,64.8667994 4.75814058,65.9388165 C5.61100971,67.0801878 7.05999677,68.0144875 9.05266317,68.6966351 C9.73980658,68.9319439 10.4556428,69.1271263 11.2402428,69.2990256 C11.7903533,70.1243401 12.3795454,70.9214175 12.9865468,71.6962025 C11.2570627,71.4608938 9.71655551,71.1111507 8.38877084,70.651927 C5.99489976,69.8320618 4.20803009,68.6510596 3.10929323,67.1658898 C1.96949596,65.6118612 1.56829128,63.7655544 1.98681059,61.6784896 C2.4048352,59.6434404 3.63565794,57.3834856 5.74853733,54.9635208 C10.4779045,49.5157516 18.9130968,44.1026595 28.7161448,39.750686 C38.4796165,35.4215003 49.6282586,32.1247008 59.8493312,30.891683" id="Fill-9" fill="#F9D6FF"></path>
                    <path d="M12.5112727,72.3037975 C12.4888867,72.3037975 12.4540641,72.3037975 12.4137693,72.2917769 C10.6572171,72.0543705 9.0508996,71.6887447 7.67490881,71.2079217 C5.1353452,70.3324232 3.24646704,69.0627499 2.04309693,67.4449809 C0.742223506,65.6944846 0.321367323,63.6424723 0.799432089,61.3520519 C1.25411596,59.1322524 2.57886775,56.7431631 4.71498648,54.2564066 C9.39614096,48.8526573 17.6645223,43.3277005 28.0580781,38.7012817 C38.3541307,34.1039126 49.5481092,30.9044362 59.555134,29.6863513 C67.237003,28.7527533 73.6572984,29.0778096 78.1081261,30.6144398 C80.6476897,31.4949469 82.54204,32.7586099 83.7454101,34.3763789 C85.0413089,36.1328855 85.4616676,38.1853987 84.9836029,40.4693079 C84.586625,42.4582122 83.4747887,44.5803446 81.7187339,46.7771047 C81.5456158,47.0034922 81.2401717,47.0841302 80.9755198,46.9974819 C80.7048983,46.9103327 80.5317802,46.6614066 80.5148663,46.3714103 C80.4745716,45.3571742 80.4004492,44.2838371 80.2845396,43.188963 C80.2671283,43.0377041 80.3079205,42.8874469 80.3830379,42.7597283 C81.0272563,41.6989126 81.4481124,40.6956954 81.644114,39.7736171 C81.8913546,38.4924242 81.6784392,37.3624901 80.9929311,36.4344016 C80.227331,35.3851055 78.8742237,34.5276378 77.0027568,33.8780259 C73.0294964,32.5096838 67.1444743,32.2372174 59.9814623,33.1067057 C50.296298,34.2837203 39.4475608,37.391039 29.4350639,41.8491698 C19.5021615,46.2842611 11.6536414,51.4906727 7.29484484,56.5172764 C5.53829261,58.5467502 4.48465976,60.407435 4.14489052,62.053753 C3.87426905,63.3349459 4.10509325,64.4598714 4.79557597,65.3929685 C5.55570392,66.4367551 6.89189743,67.2947237 8.78624772,67.9438347 C9.41355227,68.1642119 10.1388576,68.3670591 10.8875438,68.5293369 C11.0546924,68.5699063 11.2103992,68.6685752 11.3084,68.8138238 C11.8600897,69.6307221 12.4366528,70.431092 13.0470435,71.1969029 C13.2136946,71.4167792 13.2370755,71.7182953 13.1042521,71.9562025 C12.9898349,72.1700686 12.7590107,72.3037975 12.5112727,72.3037975 M59.7108408,31.0431737 C49.836142,32.2432277 38.7744894,35.4026355 28.593849,39.9474146 C18.413706,44.4987048 10.2945644,49.895943 5.74523844,55.1489343 C3.74194311,57.455883 2.52066423,59.6361148 2.11771682,61.6305286 C1.73815031,63.5202631 2.07791955,65.2016411 3.13204987,66.6340929 C4.16230183,68.030483 5.82085326,69.1323691 8.11815096,69.9207185 C8.97627971,70.2162243 9.91450047,70.4661521 10.9457474,70.6689993 C10.7323345,70.3845123 10.541805,70.0945159 10.351773,69.8045196 C9.62696515,69.6367324 8.95837093,69.4454049 8.3425081,69.231038 C6.20638937,68.4947778 4.64036659,67.4745314 3.7011509,66.2048582 C2.76889974,64.9467047 2.48086696,63.4566542 2.82610832,61.7757772 C3.2061723,59.9030717 4.37571472,57.8335294 6.28100926,55.6187385 C10.7557154,50.4473869 18.7768561,45.119267 28.8818817,40.6030368 C39.0048161,36.0928169 49.9918488,32.9449288 59.8088416,31.7563944 C67.1797944,30.8573556 73.2772344,31.1533623 77.4405268,32.5908227 C79.5761481,33.3270829 81.1431658,34.3473292 82.0813866,35.6170025 C83.0196073,36.8811663 83.302168,38.3707159 82.9623988,40.0465844 C82.7489859,41.0668307 82.3117133,42.1446756 81.644114,43.269601 C81.7013226,43.6582663 81.7356478,44.0464307 81.7585312,44.435096 C82.7489859,42.9450455 83.4001688,41.5246142 83.6707903,40.1973424 C84.0508542,38.3010967 83.7051154,36.6197188 82.6514825,35.1882686 C81.6267027,33.7968871 79.9626792,32.6894916 77.6703561,31.9011422 C73.4095604,30.4341312 67.2021804,30.1326151 59.7108408,31.0431737" id="Fill-11" fill="#A12CC5"></path>
                    <path d="M42.4653616,7.38274483 C44.3435192,4.15680332 46.2102971,2.11947211 47.9400229,1.20908986 C49.4000975,0.4425841 50.7864509,0.414009327 52.0807766,1.09278552 C53.2370607,1.70789511 54.26223,2.92056839 55.098396,4.69019908 C55.9751335,6.52399769 56.6732579,9.01301084 57.1888112,12.1176349 C56.4506101,11.8278767 55.7054823,11.5666932 54.9667865,11.3225544 C54.5091216,8.96087441 53.9416172,7.0463646 53.260315,5.60108265 C52.6131521,4.24353026 51.8853413,3.35019261 51.130318,2.94362873 C50.4653433,2.59571833 49.721205,2.63030885 48.8850389,3.0654475 C47.4818632,3.80237586 45.9070013,5.57250787 44.2114149,8.44452324 C40.489239,14.7811045 37.1104354,25.0168891 34.6533935,36.4538168 C32.184972,47.9143061 30.6670089,60.5413481 30.6670089,71.6243496 C30.6670089,80.7752954 31.6931678,87.3730602 33.4223988,91.0115813 C34.0690668,92.3631179 34.7909404,93.2569569 35.5469533,93.6630195 C36.2163809,94.0109299 36.9555715,93.975838 37.7922323,93.5412007 C39.195408,92.8097868 40.7524581,91.0401561 42.4653616,88.162125 C42.6538701,87.8257447 42.8661276,87.4718186 43.054636,87.105861 L43.3351722,87.105861 C44.045666,87.105861 44.7269682,87.0888164 45.4087651,87.0482101 C45.0312535,87.8137133 44.6294979,88.5451272 44.2114149,89.2239034 C42.3327625,92.4558606 40.4719219,94.4866748 38.7248791,95.3980597 C37.276679,96.1635628 35.8730086,96.1931402 34.6019372,95.5198784 C33.439221,94.8987531 32.4140518,93.6865811 31.5778857,91.9164491 C29.7165504,88.0052144 28.5944056,81.0886153 28.5944056,71.6243496 C28.5944056,60.3964689 30.1519504,47.6125164 32.6431316,36.0126624 C35.1348075,24.3902494 38.6105866,13.9283732 42.4653616,7.38274483" id="Fill-13" fill="#F9D6FF"></path>
                    <path d="M36.5187475,96 C35.7662941,96 35.0246815,95.815982 34.3288961,95.4414806 C33.0225738,94.7626034 31.9222276,93.4555784 31.0150457,91.5616852 C29.0301848,87.4227727 27.986014,80.358969 27.986014,71.1366841 C27.986014,60.3139401 29.4239048,47.7176607 32.018317,35.6629909 C34.6314543,23.5625653 38.1276281,13.4012913 41.8751124,7.05764447 C43.7855656,3.81644128 45.7196716,1.66989641 47.6074576,0.679680734 C49.2557594,-0.184209083 50.8469003,-0.2244941 52.3414592,0.558328336 C53.6477814,1.24367098 54.7422144,2.55069599 55.6489036,4.438621 C56.5624915,6.33251416 57.2804513,8.87693575 57.7884929,11.9913157 C57.8279142,12.2335232 57.7313321,12.4692651 57.5430955,12.6244371 C57.354859,12.7801063 57.1089688,12.819894 56.881311,12.7343505 C56.1623656,12.451858 55.443913,12.1927408 54.7082136,11.9565015 C54.480063,11.8818996 54.2913337,11.6864427 54.2519124,11.4387644 C53.812858,9.17086717 53.2649024,7.31725903 52.6041034,5.92966399 C52.0389009,4.73205507 51.3938704,3.93182553 50.7670723,3.59760909 C50.2994375,3.35589899 49.7864682,3.39668135 49.1581917,3.71846414 C47.8523622,4.40430413 46.3410493,6.15993514 44.7888369,8.80233387 C41.2359951,14.8237006 37.8822307,24.6159439 35.3439937,36.3886185 C32.7944232,48.2015782 31.3747648,60.5442112 31.3747648,71.1366841 C31.3747648,79.7258477 32.3386148,86.4559323 34.0608315,90.0761131 C34.6314543,91.2677538 35.2754993,92.0739515 35.896877,92.4021998 C36.3477578,92.6439099 36.8779738,92.609593 37.5057575,92.2813448 C38.7889198,91.6019703 40.3233927,89.8403711 41.8751124,87.1979724 C42.0628562,86.8702214 42.2742527,86.524566 42.4629821,86.1674717 C42.576811,85.9546076 42.8044688,85.8223136 43.0498662,85.8223136 L43.3287717,85.8223136 C44.0137162,85.8223136 44.698168,85.7989384 45.3594598,85.7646215 C45.622104,85.7646215 45.8275873,85.874535 45.9645762,86.0754627 C46.0961447,86.2773851 46.0961447,86.536005 45.9985771,86.7553345 C45.6048572,87.5257233 45.1889628,88.2573191 44.7888369,88.9421644 C42.8783837,92.1893358 40.9511764,94.336378 39.0564917,95.3211229 C38.1842961,95.775697 37.334275,96 36.5187475,96 L36.5187475,96 Z M50.1452017,1.35905522 C49.540578,1.35905522 48.8960403,1.53163425 48.2342558,1.8822631 C46.5691999,2.75212107 44.8060837,4.72658427 43.027199,7.74845792 C39.3595427,13.9717471 35.9141238,23.9882934 33.3418861,35.9509542 C30.7528943,47.9131176 29.3322503,60.4119172 29.3322503,71.1366841 C29.3322503,80.0307207 30.3532612,87.0711492 32.2238003,90.9748171 C32.9994138,92.5981541 33.9125089,93.6977859 34.9502738,94.2388982 C36.0284455,94.8202955 37.1810249,94.773545 38.4301863,94.1235139 C40.0952421,93.2541533 41.8578656,91.2796901 43.6367503,88.251351 C43.8422337,87.9007221 44.0536302,87.538157 44.2586208,87.1636555 C43.9742949,87.1691263 43.7116507,87.1750945 43.4435861,87.1750945 C43.3120176,87.4168046 43.1636951,87.659012 43.027199,87.8887858 C41.3104027,90.7957726 39.6621009,92.6787241 38.1098885,93.4839271 C36.8444658,94.15236 35.8742098,93.9161207 35.2754993,93.5993114 C34.3801437,93.1273301 33.5705294,92.1435799 32.851584,90.6639759 C31.0150457,86.8065612 30.0511957,80.054096 30.0511957,71.1366841 C30.0511957,60.4467315 31.4486797,48.0056239 34.0209174,36.1006553 C36.5985756,24.1897185 40.0213272,14.2482714 43.6367503,8.11152042 C45.3367925,5.21547528 47.0023411,3.33302108 48.5540608,2.52184992 C49.8199763,1.85391439 50.8069863,2.08965634 51.3938704,2.40049753 C52.2838056,2.87247878 53.0998258,3.86269445 53.812858,5.33633034 C54.480063,6.75277144 55.0447726,8.58350167 55.5010738,10.7937068 C55.7464712,10.8807424 56.0145359,10.9662859 56.2540201,11.0587922 C55.7863853,8.59494063 55.1758484,6.56875346 54.4401489,5.02548915 C53.6645355,3.4026495 52.7578463,2.30252038 51.7141682,1.7619054 C51.2061266,1.49085189 50.6926646,1.35905522 50.1452017,1.35905522 L50.1452017,1.35905522 Z" id="Fill-15" fill="#A12CC5"></path>
                    <path d="M43.2828527,13.2375468 C49.5664879,9.62009437 55.4848828,7.89873418 60.5927443,7.89873418 C63.8769056,7.89873418 66.8593683,8.60914472 69.3955374,9.97854467 C71.9322067,11.359427 74.0405943,13.4052896 75.5811081,16.0692043 C77.4398313,19.2877685 78.4825175,23.4019591 78.4825175,28.3199171 C78.4825175,28.9958805 78.4595023,29.6778347 78.4244793,30.3592897 C77.7875601,29.1231853 77.0986067,27.9150381 76.3451109,26.7593104 C76.1539851,22.8997293 75.2739059,19.663692 73.7739188,17.103618 C72.4480462,14.7861719 70.6238457,13.0064013 68.3938782,11.8102357 C66.1639107,10.6025877 63.5351807,9.97854467 60.5927443,9.97854467 C55.8266077,9.97854467 50.2729529,11.608545 44.3190346,15.0347906 C35.1980321,20.2992173 26.893567,28.7767166 20.8996224,38.2242283 C14.9051775,47.6432837 11.2162498,58.0048936 11.2162498,67.0714894 C11.2162498,71.6250064 12.137356,75.3872368 13.8109574,78.2937794 L13.8284689,78.2877886 C15.1543414,80.6112255 17.0025577,82.3850053 19.2085095,83.5871617 C21.4379767,84.7948097 24.0677073,85.4133612 27.0096434,85.4133612 C28.7988208,85.4133612 30.6980707,85.1877072 32.6788743,84.7199246 C34.0047468,85.1128221 35.3486312,85.4418175 36.7095268,85.6964271 C33.2757671,86.9100659 30.0031134,87.4936709 27.0096434,87.4936709 C23.7254821,87.4936709 20.7490233,86.7882527 18.2123539,85.4133612 C15.6526694,84.0379704 13.5622937,81.9921078 12.0212796,79.3341839 L12.0212796,79.3281931 C10.1625564,76.1041374 9.12587413,71.9894475 9.12587413,67.0714894 C9.12587413,57.6065045 12.9478894,46.8460064 19.1329598,37.1094379 C25.3010189,27.4013259 33.8486441,18.6757071 43.2828527,13.2375468" id="Fill-17" fill="#CF7FE3"></path>
                    <path d="M26.2717685,88.7088608 C22.9073984,88.7088608 19.864364,87.9814602 17.2397097,86.5505899 C14.5803967,85.0957886 12.4310618,82.9664343 10.8550809,80.2138786 C10.8550809,80.196429 10.8377516,80.1849621 10.8377516,80.168011 C8.89488354,76.7568561 7.90909091,72.5390294 7.90909091,67.633687 C7.90909091,58.3594539 11.4625985,47.6025001 17.9041666,37.3475973 C24.3516762,27.1335766 32.9084156,18.5867441 42.0320725,13.2835499 C42.0548482,13.2775672 42.0721776,13.2661003 42.0721776,13.2601175 C52.0325946,7.48927307 61.7697105,6.32363728 68.5375656,10.0229605 C71.1968786,11.4712804 73.3462135,13.6066175 74.9281359,16.3586746 C76.8883332,19.7812964 77.8741259,24.0175698 77.8741259,28.9338806 C77.8741259,29.6203992 77.8572916,30.3133991 77.8161963,31.0113846 C77.7939157,31.3170026 77.5874489,31.5767529 77.2834425,31.634586 C76.9972606,31.7038859 76.6759249,31.5538191 76.5442218,31.2771177 C75.9312578,30.0651157 75.2663058,28.8760475 74.52659,27.7388297 C74.4696507,27.6416103 74.4295456,27.5259441 74.4295456,27.4047938 C74.2404081,23.7398713 73.4264236,20.6004322 71.9766995,18.0672434 C70.7270055,15.8860387 69.0138752,14.1894354 66.9041503,13.0412492 C61.1963565,9.91876119 52.6059486,11.1018466 43.7456979,16.2554725 C35.0740897,21.287948 26.9362255,29.4359316 20.7981686,39.1887834 C14.6719947,48.9012517 11.3076246,59.0006034 11.3076246,67.633687 C11.3076246,71.9557129 12.1443848,75.6141541 13.801071,78.4993271 C15.0557161,80.6875116 16.7638952,82.3836164 18.8780763,83.5258198 C22.3003759,85.4014066 26.7644173,85.7713389 31.727544,84.5997204 C31.8424129,84.5708038 31.9562915,84.5708038 32.0711603,84.6111873 C33.3664057,84.9975721 34.6789804,85.3216368 36.0088845,85.5634389 C36.3119006,85.6207735 36.5416383,85.874541 36.5584725,86.1746748 C36.5758019,86.486774 36.3866644,86.7694582 36.1004825,86.8731589 C32.6613486,88.0911436 29.3554031,88.7088608 26.2717685,88.7088608 L26.2717685,88.7088608 Z M12.0527868,79.5792103 C13.4970646,82.0894654 15.4513205,84.0343521 17.8863422,85.355539 C22.0132038,87.6180091 27.3719349,87.9580278 33.2525271,86.3481741 C32.7935468,86.2270237 32.3177323,86.0939079 31.8651886,85.9558065 C26.6554899,87.1563416 21.9161594,86.7350575 18.2314438,84.7208707 C15.9098057,83.4515342 14.0298184,81.5869158 12.6375287,79.1753759 C10.8719152,76.0818044 9.96138144,72.2044949 9.96138144,67.633687 C9.96138144,58.7463372 13.3995251,48.3872352 19.6578972,38.4613828 C25.9108229,28.524562 34.2209904,20.2195316 43.0634165,15.0783698 C52.3593767,9.67646051 61.4087648,8.49387364 67.5522681,11.8466969 C69.8674696,13.1220161 71.7529032,14.986136 73.1397466,17.3921917 C74.6761175,20.0699633 75.5529828,23.3534865 75.7589546,27.1560118 C76.0287973,27.5723103 76.2748741,27.9876117 76.5214461,28.4088958 C76.4640117,23.953754 75.5356535,20.1272978 73.7477593,17.0402076 C72.3039767,14.5005375 70.3264499,12.5441838 67.8909331,11.2175128 C61.5399728,7.74304066 52.2618372,8.91465919 42.7198002,14.4606526 C42.6965294,14.4666353 42.6796952,14.4781022 42.6623658,14.4835864 C33.7446807,19.6835784 25.3602446,28.0564131 19.0449332,38.0744994 C12.7350682,48.116018 9.25632433,58.6132214 9.25632433,67.633687 C9.25632433,72.3196625 10.190624,76.3186209 12.0300111,79.5328442 C12.0300111,79.5502938 12.0300111,79.5617607 12.0527868,79.5792103 L12.0527868,79.5792103 Z" id="Fill-19" fill="#A12CC5"></path>
                    <path d="M69.6518314,20.6582278 C74.1979253,20.6582278 77.8741259,16.9805573 77.8741259,12.4526118 C77.8741259,7.92466625 74.1979253,4.25316456 69.6518314,4.25316456 C65.1232382,4.25316456 61.4475524,7.92466625 61.4475524,12.4526118 C61.4475524,16.9805573 65.1232382,20.6582278 69.6518314,20.6582278" id="Fill-21" fill="#F9D6FF"></path>
                    <path d="M69.3598396,21.2658228 C64.6751382,21.2658228 60.8391608,17.4508452 60.8391608,12.7594937 C60.8391608,8.06863339 64.6751382,4.25316456 69.3598396,4.25316456 C74.0612598,4.25316456 77.8741259,8.06863339 77.8741259,12.7594937 C77.8741259,17.4508452 74.0612598,21.2658228 69.3598396,21.2658228 M69.3598396,5.58983131 C65.4092894,5.58983131 62.1820725,8.80795109 62.1820725,12.7594937 C62.1820725,16.7115275 65.4092894,19.9296473 69.3598396,19.9296473 C73.3212078,19.9296473 76.5312142,16.7115275 76.5312142,12.7594937 C76.5312142,8.80795109 73.3212078,5.58983131 69.3598396,5.58983131" id="Fill-23" fill="#A12CC5"></path>
                    <path d="M44.1075949,13.2375468 C37.9028137,9.62009437 32.0526056,7.89873418 26.9985796,7.89873418 C23.7530246,7.89873418 20.8111067,8.60914472 18.3033801,9.97854467 C15.7738945,11.359427 13.7072825,13.4052896 12.1841514,16.0692043 L12.1678322,16.1041507 C12.8487905,16.2599118 13.5183747,16.5085306 14.12466,16.8435169 C15.4356407,14.6533756 17.1818018,12.9604717 19.2884701,11.8102357 C21.492065,10.6025877 24.0907838,9.97854467 26.9985796,9.97854467 C31.7094065,9.97854467 37.1986128,11.608545 43.0834376,15.0347906 C52.1045277,20.2992173 60.3071822,28.7767166 66.2310743,38.2242283 C72.1559554,47.6432837 75.8025687,58.0048936 75.8025687,67.0714894 C75.8025687,71.6250064 74.8921517,75.3872368 73.2206636,78.2937794 L73.2206636,78.2877886 C71.8928691,80.6112255 70.0893434,82.3850053 67.9030568,83.5871617 C65.6989674,84.7948097 63.1002486,85.4133612 60.1919583,85.4133612 C58.4235438,85.4133612 56.5463341,85.1877072 54.593957,84.7199246 C53.2834708,85.1128221 51.949742,85.4418175 50.5878254,85.6964271 C54.00498,86.9100659 57.2332267,87.4936709 60.1919583,87.4936709 C63.4385024,87.4936709 66.3863545,86.7882527 68.8930921,85.4133612 C71.4176324,84.0379704 73.4837499,81.9921078 75.0063865,79.3341839 L75.0063865,79.3281931 C76.8435398,76.1041374 77.8741259,71.9894475 77.8741259,67.0714894 C77.8741259,57.6065045 74.096464,46.8460064 67.9772353,37.1094379 C61.8807547,27.4013259 53.4323222,18.6757071 44.1075949,13.2375468" id="Fill-25" fill="#CF7FE3"></path>
                    <path d="M60.6111463,88.7088608 C57.515329,88.7088608 54.1883839,88.0911436 50.7229614,86.8731589 C50.4350479,86.7694582 50.244766,86.486774 50.2622002,86.1811561 C50.2851137,85.874541 50.5152453,85.6207735 50.8215892,85.5634389 C52.1590421,85.3151555 53.4964949,84.9975721 54.7766639,84.6111873 C54.8917297,84.5767866 55.0072936,84.5708038 55.1223594,84.5997204 C60.1160148,85.7713389 64.6065688,85.4014066 68.0545571,83.5258198 C70.1770474,82.3776337 71.9005434,80.6875116 73.1573008,78.4993271 C74.8240111,75.6141541 75.6658343,71.9611971 75.6658343,67.633687 C75.6658343,59.0006034 72.2816054,48.9012517 66.1233449,39.1887834 C59.9426689,29.4304474 51.7386286,21.287948 43.0319849,16.2554725 C34.1236026,11.1018466 25.475239,9.91876119 19.73789,13.0412492 C17.6916121,14.1490519 16.0249018,15.7534215 14.7796012,17.8194586 C14.5893192,18.1310592 14.1918193,18.2402441 13.8804941,18.0672434 C13.3265844,17.7611269 12.715889,17.5362759 12.0872613,17.3981744 C11.8740658,17.3463241 11.7012181,17.2077241 11.6255038,17.0112911 C11.5338497,16.8208407 11.5338497,16.5954911 11.6489155,16.4110235 C13.2518664,13.6066175 15.4142063,11.4712804 18.0896102,10.0229605 C24.9158499,6.32363728 34.6944484,7.48927307 44.7156313,13.2601175 C44.7156313,13.2661003 44.7385449,13.2775672 44.7559791,13.2835499 C53.9348407,18.5927268 62.5433547,27.1390607 69.0293784,37.3475973 C75.5099227,47.6084828 79.0909091,58.3594539 79.0909091,67.633687 C79.0909091,72.5390294 78.0991517,76.7568561 76.1445279,80.1729966 C76.1445279,80.1849621 76.1270937,80.196429 76.1270937,80.2138786 C74.5355995,82.9664343 72.3732595,85.0957886 69.6978557,86.5505899 C67.0573203,87.9814602 63.9958733,88.7088608 60.6111463,88.7088608 M53.571213,86.3481741 C59.5048213,87.9640105 64.8775462,87.6180091 69.0473107,85.355539 C71.497066,84.0343521 73.4636447,82.0894654 74.9216427,79.5732276 C74.9216427,79.5617607 74.939575,79.5502938 74.939575,79.5328442 C76.795571,76.3186209 77.7300446,72.3136798 77.7300446,67.633687 C77.7300446,58.6197027 74.2302518,48.116018 67.8822075,38.0744994 C61.5281857,28.0564131 53.0930175,19.6835784 44.1044378,14.4835864 C44.1044378,14.4781022 44.0870036,14.4666353 44.0695694,14.4606526 C34.4812529,8.91465919 25.1469777,7.73755649 18.7401552,11.2175128 C16.5205314,12.4180479 14.687947,14.1370865 13.2693006,16.3247725 C13.4999303,16.4055393 13.7305599,16.4917904 13.9611896,16.5900069 C15.2812082,14.570336 16.999225,12.9774334 19.087345,11.8466969 C25.2615454,8.49387364 34.3716664,9.67646051 43.7238739,15.0783698 C52.614324,20.2195316 60.974276,28.524562 67.2705158,38.4613828 C73.5612763,48.3872352 77.0266988,58.7518214 77.0266988,67.633687 C77.0266988,72.1980136 76.1041801,76.0818044 74.3278834,79.1753759 C72.9326486,81.5869158 71.0358067,83.4515342 68.7065965,84.7208707 C64.9936082,86.7350575 60.2305824,87.1618257 54.9898594,85.9558065 C54.5290982,86.0939079 54.0499065,86.2270237 53.571213,86.3481741" id="Fill-27" fill="#A12CC5"></path>
                    <path d="M80.2745867,35.8481013 C81.8595439,37.3084063 83.1353501,38.8385848 84.1059751,40.427075 C85.6333696,42.9058234 86.3916084,45.5006925 86.3916084,48.0960643 C86.3916084,50.6914361 85.6333696,53.2863051 84.1059751,55.7655563 L84.1059751,55.7715885 C82.0491036,59.1405952 78.5799628,62.2884197 73.6801922,64.94713 C65.415489,69.4507008 54.611083,71.6962025 43.8007222,71.6962025 C33.0027672,71.6962025 22.1983611,69.4507008 13.9043804,64.94713 C9.02793259,62.2884197 5.55879179,59.1405952 3.4850485,55.7715885 C1.9804805,53.2928401 1.21678322,50.6974683 1.21678322,48.0960643 C1.21678322,45.5006925 1.9804805,42.9118557 3.4850485,40.427075 C4.45616973,38.8385848 5.74785525,37.3028768 7.3338049,35.8481013 C6.85643207,37.3199681 6.45448614,38.827023 6.15079365,40.3687633 C5.88580707,40.7357247 5.63918098,41.1021833 5.4094267,41.4741715 L5.4094267,41.468642 C4.09392216,43.6211467 3.4279821,45.8611189 3.4279821,48.0960643 C3.4279821,50.330507 4.09392216,52.5770141 5.4094267,54.7239893 C7.29361031,57.7903786 10.4982608,60.6763033 15.0303252,63.1434899 C22.9565999,67.4495047 33.3650147,69.6015068 43.8007222,69.6015068 C54.2493316,69.6015068 64.6512955,67.4495047 72.5780664,63.1434899 C77.1150932,60.6763033 80.3147813,57.7903786 82.1984687,54.7239893 C83.513477,52.5770141 84.1630415,50.3360365 84.1630415,48.0960643 C84.1630415,45.8611189 83.513477,43.6211467 82.1984687,41.4741715 L82.1984687,41.468642 C81.9687144,41.0961511 81.7220883,40.7291898 81.457598,40.3627311 C81.1534092,38.827023 80.7514633,37.3199681 80.2745867,35.8481013" id="Fill-29" fill="#CF7FE3"></path>
                    <g id="Group-33" transform="translate(0.000000, 34.632911)">
                        <mask id="mask-2" fill="white">
                            <use xlink:href="#path-1"></use>
                        </mask>
                        <g id="Clip-32"></g>
                        <path d="M43.3532434,37.5715354 C31.9597234,37.5715354 21.2105006,35.1470372 13.0976263,30.7460731 C8.19430629,28.0895222 4.60344343,24.9266746 2.38817486,21.3333744 C0.805769143,18.7576903 -9.94285714e-05,16.0549298 -9.94285714e-05,13.3044529 C-9.94285714e-05,10.5715556 0.805769143,7.88537033 2.37027771,5.32123868 C2.37027771,5.31018856 2.38817486,5.29210653 2.38817486,5.28105641 C3.41775771,3.6240397 4.758552,2.03633742 6.38172343,0.554615899 C6.61190057,0.351193114 6.93404914,0.321558684 7.19852914,0.490324253 C7.44560914,0.658587544 7.56144343,0.984566278 7.46897486,1.28091058 C6.99122057,2.73450451 6.589032,4.22828071 6.30118629,5.71753641 C6.28378629,5.81548071 6.24351771,5.90840223 6.18584914,5.99027362 C5.920872,6.33885489 5.691192,6.69346349 5.46051771,7.04857438 C4.22362629,9.07124982 3.59126057,11.1762989 3.59126057,13.3044529 C3.59126057,15.4260772 4.22362629,17.5371536 5.46051771,19.5658564 C7.35413486,22.6242301 10.4846434,25.3681774 14.7998434,27.7113065 C14.8177406,27.7173339 14.8351406,27.7233612 14.8585063,27.7349136 C22.4364549,31.8450584 32.5528149,34.1068184 43.3532434,34.1068184 C54.1601349,34.1068184 64.2824606,31.8450584 71.8609063,27.7349136 C71.8783063,27.7233612 71.8957063,27.7113065 71.9180777,27.7052792 C76.2283063,25.3621501 79.3652777,22.6242301 81.2514377,19.5658564 C82.494792,17.5371536 83.1216891,15.4321045 83.1216891,13.3044529 C83.1216891,11.181824 82.494792,9.07124982 81.2514377,7.04857438 C81.235032,7.03099463 81.2116663,7.01341489 81.2116663,6.99583514 C81.0043577,6.65880628 80.7741806,6.32127514 80.5271006,5.98474856 C80.469432,5.90287716 80.4291634,5.81045792 80.4122606,5.71753641 C80.1239177,4.22828071 79.721232,2.73450451 79.2494434,1.28091058 C79.1520034,0.990091342 79.2668434,0.664614886 79.5139234,0.495849316 C79.7848663,0.327586025 80.1070149,0.351193114 80.3376891,0.559638684 C81.9598663,2.04286704 83.2946949,3.62956476 84.307872,5.28105641 C85.9071806,7.85071311 86.7130491,10.5539759 86.7130491,13.3044529 C86.7130491,16.0373501 85.9071806,18.7230331 84.3476434,21.2871648 C84.3476434,21.3042422 84.325272,21.3162969 84.325272,21.3333744 C82.1095063,24.9266746 78.5017406,28.0895222 73.6158206,30.7460731 C65.5024491,35.1470372 54.7532263,37.5715354 43.3532434,37.5715354 L43.3532434,37.5715354 Z M3.57336343,5.96114147 C3.55646057,5.97219159 3.55646057,5.99027362 3.53259771,6.00182603 C2.10032914,8.36253489 1.35809486,10.8151607 1.35809486,13.3044529 C1.35809486,15.7982655 2.10032914,18.2579232 3.53259771,20.6126048 C5.61662057,23.9959526 9.05187771,27.0020893 13.7294949,29.5426139 C21.653952,33.8386017 32.1729977,36.2053379 43.3532434,36.2053379 C54.5459177,36.2053379 65.0654606,33.8386017 72.9834549,29.5426139 C77.6441691,27.0081167 81.0625234,24.0195597 83.1390891,20.6532893 C83.1624549,20.6362118 83.1624549,20.6241572 83.1624549,20.6070797 C84.6126206,18.2523982 85.3548549,15.7922382 85.3548549,13.3044529 C85.3548549,10.8151607 84.6126206,8.35600527 83.1624549,5.99579868 C82.644432,5.13539565 82.0120663,4.28704729 81.2922034,3.46682653 C81.4418434,4.07156982 81.5745806,4.68786552 81.7068206,5.29863615 C81.9598663,5.63566501 82.1900434,5.97872122 82.397352,6.32127514 C82.397352,6.33885489 82.414752,6.35643463 82.414752,6.37401438 C83.7898491,8.60664223 84.4803806,10.9382189 84.4803806,13.3044529 C84.4803806,15.6932893 83.7729463,18.037423 82.397352,20.2871283 C80.371992,23.5660022 77.0515749,26.4726878 72.5057006,28.9383729 C72.4878034,28.949423 72.4704034,28.9554503 72.4535006,28.9614777 C64.6791806,33.1650463 54.3500434,35.478541 43.3532434,35.478541 C32.3634034,35.478541 22.0104034,33.1585167 14.2420491,28.9614777 C14.2246491,28.949423 14.2246491,28.9438979 14.2077463,28.9383729 C9.66137486,26.4726878 6.34095771,23.5599749 4.31559771,20.2871283 C2.94050057,18.037423 2.239032,15.6882665 2.239032,13.3044529 C2.239032,10.9201369 2.94050057,8.57148273 4.31559771,6.32730248 C4.528872,5.97872122 4.758552,5.64119008 5.00612914,5.29863615 C5.12146629,4.68786552 5.27110629,4.07156982 5.426712,3.46130147 C4.71878057,4.27499261 4.09138629,5.10626349 3.57336343,5.96114147 L3.57336343,5.96114147 Z" id="Fill-31" fill="#A12CC5" mask="url(#mask-2)"></path>
                    </g>
                    <path d="M51.4175733,78.9873418 C56.2869601,78.9873418 60.2307692,75.0432822 60.2307692,70.1772152 C60.2307692,65.3106501 56.2869601,61.3670886 51.4175733,61.3670886 C46.555172,61.3670886 42.5874126,65.3106501 42.5874126,70.1772152 C42.5874126,75.0432822 46.555172,78.9873418 51.4175733,78.9873418" id="Fill-34" fill="#F9D6FF"></path>
                    <path d="M51.4056252,79.5949367 C46.1967333,79.5949367 41.979021,75.3712643 41.979021,70.1799347 C41.979021,64.9831661 46.1967333,60.7594937 51.4056252,60.7594937 C56.5981791,60.7594937 60.8391608,64.9831661 60.8391608,70.1799347 C60.8391608,75.3712643 56.5981791,79.5949367 51.4056252,79.5949367 M51.4056252,62.1039289 C46.9586841,62.1039289 43.3261738,65.7273276 43.3261738,70.1799347 C43.3261738,74.6325419 46.9586841,78.2500071 51.4056252,78.2500071 C55.8585075,78.2500071 59.4860669,74.6325419 59.4860669,70.1799347 C59.4860669,65.7273276 55.8585075,62.1039289 51.4056252,62.1039289" id="Fill-36" fill="#A12CC5"></path>
                </g>
            </g>
        </g>
    </g>
</svg>