<?xml version="1.0" encoding="UTF-8"?>
<svg width="38px" height="96px" viewBox="0 0 38 96" version="1.1" xmlns="http://www.w3.org/2000/svg" xmlns:xlink="http://www.w3.org/1999/xlink">
    <title>Group 17</title>
    <g id="Website" stroke="none" stroke-width="1" fill="none" fill-rule="evenodd">
        <g id="Desktop---Algo-Foundation-Home" transform="translate(-211.000000, -1945.000000)">
            <g id="Section---Algorand-Protocol" transform="translate(70.000000, 1772.000000)">
                <g id="Group-5" transform="translate(0.000000, 122.000000)">
                    <g id="Group-17" transform="translate(141.000000, 51.000000)">
                        <path d="M15.6309867,33.39856 C12.59952,35.3244267 10.89552,36.88656 8.54352,39.5718933 C6.53765333,42.1398933 5.08005333,44.3500267 3.66672,47.25136 C2.40112,50.08496 1.58032,52.5110933 1.04965333,55.5734933 C0.802186667,57.2028267 0.740853333,58.66576 0.740853333,60.2710933 L0.740853333,81.0134933 C0.820853333,84.86576 1.66032,88.4524267 5.10512,90.6374933 L11.0192533,94.05136 C7.56218667,91.8662933 6.72272,88.2790933 6.63632,84.4204267 L6.63632,63.3644267 C6.63632,61.88176 6.74138667,60.4684267 6.94512,58.98736 C7.43898667,56.28336 8.11205333,54.12816 9.15525333,51.59696 C10.3648533,48.9494933 11.55632,46.9740267 13.21072,44.56016 C15.87792,41.15216 17.88432,39.1398933 21.5264533,36.8118933 C24.92752,34.9542933 28.4277867,33.89296 32.05232,35.78736 L26.1376533,32.3740267 C22.5136533,30.47856 19.00752,31.5404267 15.6309867,33.39856 L15.6309867,33.39856 Z M9.95738667,82.23536 C10.5317867,82.5254933 10.8773867,82.64336 11.4944533,82.7420267 C13.2725867,82.88976 14.64272,82.2972267 16.0816533,81.4086933 C17.2480533,80.6246933 18.08752,79.8588267 19.0512533,78.8156267 C20.4208533,77.2166933 21.40272,75.6796267 22.28592,73.70416 C22.8784533,72.2838933 23.5141867,70.38896 23.6560533,68.7222933 C23.6992533,68.1478933 23.6560533,67.1046933 23.6560533,66.5308267 L23.6560533,46.72656 C23.6560533,46.07856 23.6805867,45.69616 23.6128533,45.0166933 C23.40912,43.2140267 22.8597867,41.7638933 21.3040533,40.76976 L27.1989867,44.1830933 C29.8421867,45.8502933 29.5760533,48.5606933 29.5760533,51.12816 L29.5760533,70.6854933 C29.5760533,71.53776 29.5573867,72.2102933 29.4160533,73.1052267 C29.1253867,74.7724267 28.6752533,76.0806933 27.97712,77.6246933 C27.46512,78.66096 26.9589867,79.5500267 26.2981867,80.50736 C25.35952,81.8220267 24.3973867,82.9334933 23.14352,83.98256 C21.5264533,85.2604267 19.86512,86.1990933 17.7605867,86.1807002 C16.9824533,86.1190933 16.5504533,86.0076267 15.87792,85.64336 L9.95738667,82.23536 Z" id="Fill-1" fill="#ABF6F3"></path>
                        <path d="M11.0192533,94.77984 C10.89552,94.77984 10.77232,94.7489067 10.6485867,94.6811733 L4.73498667,91.2667733 C0.678453333,88.69984 0.0864533333,84.44544 5.33333333e-05,81.0257067 L5.33333333e-05,60.27104 C5.33333333e-05,58.48064 0.10512,56.99904 0.333386667,55.4683733 C0.864586667,52.46784 1.64165333,50.0113067 3.01232,46.9553067 C4.38885333,44.1403733 5.82085333,41.8747733 7.96965333,39.12704 C10.2661867,36.5227733 12.00752,34.8433067 15.2421867,32.7873067 C15.2421867,32.78144 15.2608533,32.76864 15.2784533,32.7633067 C18.27312,31.12704 22.2421867,29.52224 26.4837867,31.72544 L32.4224533,35.1585067 C32.7493867,35.3489067 32.87312,35.78784 32.68752,36.13344 C32.5024533,36.4795733 32.07632,36.6091733 31.73072,36.4299733 C28.86032,34.9361067 25.9093867,35.2379733 21.8720533,37.44864 C18.2112533,39.7819733 16.26032,41.8315733 13.78512,45.0049067 C12.0437867,47.53504 10.9205867,49.4737067 9.83365333,51.9003733 C8.74778667,54.4865067 8.11205333,56.58624 7.66085333,59.1105067 C7.47525333,60.5179733 7.37658667,61.91904 7.37658667,63.3643733 L7.37658667,84.4203733 C7.47525333,88.94624 8.71045333,91.73664 11.4144533,93.4395733 C11.7413867,93.65024 11.8400533,94.08864 11.6368533,94.4283733 C11.4944533,94.6507733 11.2656533,94.77984 11.0192533,94.77984 M16.0016533,34.0289067 C20.01392,31.83104 22.9397867,31.5281067 25.7856533,33.0033067 L27.63152,34.0715733 C25.23632,34.1825067 23.0016533,35.17664 21.1376533,36.2017067 C17.2480533,38.67744 15.2421867,40.80704 12.6181867,44.14624 C10.7968533,46.7825067 9.64858667,48.7889067 8.50085333,51.3201067 C7.35845333,54.03584 6.69765333,56.2209067 6.22885333,58.8881067 C6.02458667,60.3819733 5.92005333,61.84544 5.92005333,63.3643733 L5.92005333,84.43904 C5.96378667,86.5323733 6.21018667,88.94624 7.31525333,91.0817067 L5.49445333,90.0267733 C2.77178667,88.29824 1.56165333,85.6001067 1.45658667,81.01344 L1.45658667,60.27104 C1.45658667,58.5547733 1.56165333,57.13504 1.76538667,55.7025067 C2.25285333,52.8507733 3.01232,50.4859733 4.32112,47.5723733 C5.63578667,44.8747733 7.02512,42.6833067 9.07472,40.05344 C11.3093867,37.5409067 12.90832,35.99104 16.0016533,34.0289067 M17.7973867,86.9089067 L17.7605867,86.9089067 C16.7973867,86.8289067 16.2853867,86.6801067 15.52592,86.29184 L9.58672,82.8651733 C9.24165333,82.66784 9.11792,82.2353067 9.32165333,81.89024 C9.50672,81.54464 9.93285333,81.4145067 10.2848533,81.5937067 C10.7968533,81.84704 11.0629867,81.93344 11.6181867,82.02624 C13.1301867,82.1489067 14.3408533,81.61824 15.6928533,80.79104 C16.73552,80.09344 17.53232,79.40224 18.51952,78.3345067 C19.8288533,76.8027733 20.7733867,75.3217067 21.63152,73.4081067 C22.0384533,72.4139733 22.7797867,70.4507733 22.92112,68.6603733 C22.9648533,68.2715733 22.9397867,67.6603733 22.9397867,67.1419733 L22.92112,66.5307733 L22.9397867,62.33344 L22.92112,46.7265067 L22.9397867,46.3067733 C22.9397867,45.89344 22.9397867,45.5665067 22.89712,45.06624 C22.67472,43.2203733 22.10032,42.13984 20.9152533,41.3873067 C20.5632533,41.1707733 20.4645867,40.7323733 20.66832,40.39264 C20.8720533,40.05344 21.32272,39.9425067 21.6501867,40.14624 L27.5696533,43.5537067 C30.33552,45.31264 30.3168533,48.05984 30.29232,50.4859733 L30.29232,70.68544 C30.29232,71.4881067 30.2736533,72.2347733 30.1312533,73.21024 C29.8416533,74.8827733 29.4160533,76.2417067 28.63152,77.9265067 C28.1008533,79.0257067 27.5696533,79.9457067 26.9152533,80.91424 C25.8656533,82.36544 24.8224533,83.5137067 23.6128533,84.5387733 C22.1189867,85.7179733 20.27952,86.9089067 17.7973867,86.9089067 M13.3589867,83.35904 L16.2229867,85.01344 C16.77872,85.3035733 17.1061867,85.3963733 17.8224533,85.45824 L17.8405867,85.45824 C19.8288533,85.45824 21.3477867,84.4763733 22.6933867,83.4145067 C23.80432,82.4699733 24.7424533,81.43904 25.72432,80.0875733 C26.3168533,79.1921067 26.8352533,78.3281067 27.32272,77.30304 C28.03952,75.7537067 28.4277867,74.4945067 28.6992533,72.9755733 C28.8416533,72.11744 28.8416533,71.4571733 28.8416533,70.68544 L28.8416533,50.47424 C28.86032,48.1281067 28.8789867,46.10944 26.8101867,44.79424 L23.9829867,43.1585067 C24.1680533,43.7697067 24.2736533,44.37504 24.3536533,44.93024 C24.3968533,45.51104 24.3968533,45.8683733 24.37872,46.3201067 L24.37872,66.5307733 L24.3968533,67.12384 C24.3968533,67.6849067 24.41552,68.3579733 24.37872,68.7777067 C24.2117867,70.77184 23.40912,72.8955733 22.9648533,73.9883733 C22.02032,76.05664 21.01392,77.6363733 19.6000533,79.2913067 C18.5381867,80.45184 17.6373867,81.2417067 16.48912,82.01344 C15.5445867,82.58784 14.5440533,83.1243733 13.3589867,83.35904" id="Fill-3" fill="#00C4B5"></path>
                        <path d="M27.2179733,34.83712 C25.45904,35.0093867 23.5571733,35.65152 21.52624,36.8120533 C17.43344,39.1768533 13.7049067,43.2637867 11.01904,47.9309867 C9.64837333,50.31392 8.54384,52.84512 7.78437333,55.3752533 C7.23504,57.24032 6.86490667,59.11072 6.72250667,60.9192533 C6.61744,62.2216533 6.63610667,63.5613867 6.63610667,64.80832 L6.63610667,84.4205867 C6.63610667,86.7480533 7.04997333,88.7304533 7.76570667,90.3288533 C9.27824,93.66912 12.2105067,95.35392 15.85264,94.9960533 C17.5939733,94.8232533 19.51984,94.1816533 21.52624,93.0205867 C23.5571733,91.8600533 25.45904,90.2861867 27.2179733,88.4397867 C30.84784,84.59392 33.7737067,79.53152 35.29264,74.4568533 C36.7001067,69.66752 36.4169067,65.9624533 36.4169067,61.7896533 L36.4169067,50.8504533 C36.4169067,46.6712533 36.7001067,42.6584533 35.29264,39.49792 C33.7737067,36.1640533 30.84784,34.47872 27.2179733,34.83712 L27.2179733,34.83712 Z M13.5011733,75.0253867 L13.5011733,64.0861867 C13.5011733,61.41312 13.1923733,57.8141867 14.1123733,54.75872 C14.51984,53.3816533 15.11824,52.0109867 15.85264,50.7272533 C16.6121067,49.4488533 17.4953067,48.2456533 18.47664,47.20192 C20.4211733,45.1341867 22.6377067,43.8621867 24.6009067,43.67072 C25.58224,43.5725867 26.4649067,43.7581867 27.1993067,44.18272 C30.1939733,45.8989867 29.57584,50.39392 29.57584,54.8072533 L29.57584,65.7464533 C29.57584,70.1976533 30.1689067,73.9576533 27.1993067,79.10592 C26.4649067,80.3901867 25.58224,81.59392 24.6009067,82.63072 C22.6377067,84.7053867 20.43984,85.9768533 18.47664,86.1613867 C16.5075733,86.3533867 14.9331733,85.4397867 14.1123733,83.64352 C13.72304,82.7789867 13.5011733,81.71072 13.5011733,80.4637867 L13.5011733,75.0253867 Z" id="Fill-5" fill="#FFFFFF"></path>
                        <path d="M14.91456,95.76736 C11.43296,95.76736 8.60522667,93.93376 7.11189333,90.63136 C6.30922667,88.8900267 5.92042667,86.79776 5.92042667,84.4206933 L5.92042667,64.2836267 C5.92042667,63.1662933 5.90176,62.0180267 6.00629333,60.8638933 C6.14816,59.0366933 6.51882667,57.1230933 7.09269333,55.1716267 C7.84629333,52.5854933 8.97589333,50.0292267 10.3892267,47.5668267 C13.2724267,42.5844267 17.1060267,38.5342933 21.1806933,36.1886933 C23.2302933,34.99776 25.2366933,34.30016 27.1374933,34.1150933 C31.1134933,33.73216 34.31136,35.5838933 35.9470933,39.2014933 C37.2372267,42.04096 37.1940267,45.4366933 37.1508267,49.0228267 L37.1508267,50.85056 L37.1508267,61.78976 L37.1508267,63.5796267 C37.1940267,67.1236267 37.2372267,70.46336 35.9838933,74.6606933 C34.4532267,79.82816 31.4404267,85.0318933 27.73056,88.9396267 C25.8910933,90.89056 23.9214933,92.47776 21.8964267,93.64416 C19.8468267,94.8356267 17.8404267,95.5326933 15.91456,95.71776 C15.5876267,95.74976 15.2420267,95.76736 14.91456,95.76736 L14.91456,95.76736 Z M28.16256,35.5156267 C31.08896,35.5156267 33.3668267,37.0100267 34.61376,39.8004267 C35.78016,42.34976 35.74336,45.5844267 35.70016,49.0110933 L35.70016,50.85056 L35.70016,61.78976 L35.70016,63.5924267 C35.74336,67.0244267 35.78016,70.26016 34.5956267,74.25376 C33.1198933,79.2046933 30.2308267,84.1924267 26.68736,87.94016 C24.92736,89.7918933 23.0878933,91.28576 21.1806933,92.3908267 C19.2916267,93.4772267 17.4766933,94.1070933 15.79136,94.2734933 C12.43296,94.5950933 9.83349333,93.0942933 8.43882667,90.02656 C7.72309333,88.4772267 7.37696,86.59456 7.37696,84.4206933 L7.37696,64.2772267 C7.37696,63.19136 7.35829333,62.0670933 7.43882667,60.9812267 C7.58069333,59.25216 7.92682667,57.43776 8.48202667,55.5790933 C9.21642667,53.1102933 10.2846933,50.6590933 11.6366933,48.2942933 C14.4020267,43.52256 18.04416,39.6708267 21.8964267,37.44256 C23.7796267,36.35616 25.58176,35.7262933 27.28576,35.55936 C27.58816,35.52896 27.8788267,35.5156267 28.16256,35.5156267 L28.16256,35.5156267 Z M17.96416,86.9150933 C15.9390933,86.9150933 14.3220267,85.8532267 13.4574933,83.9460267 C13.0068267,82.96416 12.7844267,81.7908267 12.7844267,80.4638933 L12.7844267,64.0862933 C12.7844267,63.5796267 12.7598933,63.0366933 12.7598933,62.4686933 C12.7044267,59.9684267 12.6366933,57.12896 13.4212267,54.54816 C13.8462933,53.12256 14.4638933,51.72096 15.2420267,50.3630933 C16.0196267,49.0174933 16.92096,47.7822933 17.9454933,46.70816 C20.0324267,44.49216 22.36576,43.1582933 24.5198933,42.9486933 C25.64416,42.84416 26.68736,43.05376 27.5700267,43.5540267 C30.47776,45.23296 30.3972267,48.9428267 30.3166933,52.8692267 C30.3166933,53.51776 30.29216,54.1598933 30.29216,54.80736 L30.29216,65.74656 C30.29216,66.40096 30.3166933,67.0308267 30.3166933,67.6606933 C30.3972267,71.3886933 30.4590933,74.90176 27.8356267,79.4644267 C27.0574933,80.8158933 26.1374933,82.05056 25.1316267,83.1310933 C23.02016,85.3470933 20.6868267,86.6804267 18.5380267,86.88416 C18.35296,86.9022933 18.1492267,86.9150933 17.96416,86.9150933 L17.96416,86.9150933 Z M25.0942933,44.37536 C24.94656,44.37536 24.8036267,44.3812267 24.6622933,44.3934933 C22.8782933,44.5662933 20.8286933,45.7764267 19.00736,47.7028267 C18.0692267,48.6964267 17.22976,49.8382933 16.48896,51.0916267 C15.7726933,52.3508267 15.1982933,53.65376 14.8094933,54.9620267 C14.09376,57.3268267 14.1550933,60.0430933 14.1988267,62.43776 C14.21696,63.0180267 14.2356267,63.56736 14.2356267,64.0862933 L14.2356267,80.4638933 C14.2356267,81.5812267 14.4020267,82.5502933 14.7662933,83.3470933 C15.4638933,84.8532267 16.7358933,85.6004267 18.3966933,85.4398933 C20.1742933,85.27296 22.2420267,84.06336 24.06976,82.13056 C24.9892267,81.14976 25.8660267,79.9764267 26.5636267,78.7412267 C29.0020267,74.5252267 28.94016,71.35776 28.86016,67.6910933 C28.86016,67.0558933 28.8414933,66.40736 28.8414933,65.74656 L28.8414933,54.80736 C28.8414933,54.1534933 28.86016,53.4926933 28.86016,52.8388267 C28.94016,49.2084267 29.0020267,46.06016 26.8542933,44.8068267 C26.3412267,44.51616 25.74816,44.37536 25.0942933,44.37536 L25.0942933,44.37536 Z" id="Fill-7" fill="#00C4B5"></path>
                        <path d="M23.0450667,3.71109333 C26.5448,6.36016 28.4898667,8.54469333 30.9901333,12.14416 C33.0952,15.5830933 34.4530667,18.3110933 35.5336,22.2124267 C36.1944,24.81136 36.4168,26.73776 36.4168,29.47856 L36.4168,50.35696 C36.3357333,54.21456 35.4962667,57.79536 32.052,59.98096 L26.1373333,63.3948267 C29.5949333,61.20976 30.4162667,57.62256 30.5149333,53.7708267 L30.5149333,32.92976 C30.5149333,31.9788267 30.4776,31.0652267 30.4162667,30.1078933 C30.1501333,27.4540267 29.6194667,25.3430933 28.7362667,22.8236267 C27.6930667,20.06416 26.6253333,18.07696 25.0941333,15.5580267 C22.5944,11.9590933 20.6498667,9.77296 17.1432,7.12496 C13.4210667,4.74789333 9.3832,2.90256 5.10533333,5.13136 L11.0194667,1.71749333 C15.2786667,-0.511306667 19.316,1.34096 23.0450667,3.71109333 L23.0450667,3.71109333 Z M27.1992,51.57936 C23.8045333,53.36336 19.9890667,50.3446933 17.8589333,47.8812267 C17.1245333,48.7580267 16.452,49.7148267 15.8530667,50.7270933 C15.3224,51.6780267 14.8530667,52.67216 14.4824,53.6844267 C15.612,54.5116267 16.5933333,55.0486933 17.9645333,55.39376 C19.236,55.6348267 20.1128,55.5916267 21.3037333,54.9926933 L27.1992,51.57936 Z M7.58053333,40.7942933 C9.40186667,38.4668267 11.124,36.61456 13.5010667,34.8246933 L13.5010667,15.9772267 C13.5010667,13.66896 13.7048,11.48336 15.8530667,10.1196267 L9.95706667,13.52656 C7.84613333,14.8662933 7.58053333,17.0086933 7.58053333,19.2796267 L7.58053333,35.0902933 C7.58053333,36.9852267 7.53786667,38.9116267 7.58053333,40.7942933 L7.58053333,40.7942933 Z" id="Fill-9" fill="#ABF6F3"></path>
                        <path d="M26.1374933,64.12304 C25.8910933,64.12304 25.6686933,64.0003733 25.5204267,63.77104 C25.3166933,63.43824 25.42176,62.99344 25.7486933,62.7833067 C28.4526933,61.07984 29.68096,58.28944 29.7796267,53.7523733 L29.7796267,32.9299733 C29.7796267,31.9971733 29.76096,31.0963733 29.6996267,30.1571733 C29.4526933,27.7315733 28.9652267,25.6691733 28.0574933,23.0649067 C26.9774933,20.2377067 25.8660267,18.2435733 24.45856,15.93424 C21.8532267,12.1683733 19.9518933,10.1619733 16.6932267,7.70544 C13.21056,5.49530667 9.40202667,3.70490667 5.43296,5.77370667 C5.08042667,5.95237333 4.65482667,5.82277333 4.46976,5.47664 C4.28416,5.13157333 4.40736,4.69850667 4.73482667,4.50117333 L10.6484267,1.08784 C15.3038933,-1.34469333 19.7236267,0.735306667 23.4526933,3.09424 C23.4526933,3.10650667 23.4708267,3.11824 23.49536,3.13104 C26.8542933,5.67450667 28.8974933,7.84144 31.5822933,11.7305067 C33.5886933,14.9897067 35.0644267,17.8355733 36.23136,22.0147733 C36.90976,24.70064 37.1508267,26.7129067 37.1508267,29.4787733 L37.1508267,50.35664 C37.0708267,53.78864 36.47776,58.0425067 32.4468267,60.5987733 L26.5022933,64.02384 C26.38496,64.0921067 26.2612267,64.12304 26.1374933,64.12304 M9.50656,3.42117333 L11.34656,2.35877333 C15.3220267,0.29104 19.1124267,2.06864 22.63776,4.30970667 C25.8910933,6.76730667 27.7732267,8.77370667 30.37216,12.5203733 C32.2990933,15.6441067 33.7124267,18.3913067 34.8356267,22.38544 C35.47776,24.9539733 35.70016,26.8051733 35.70016,29.4787733 L35.70016,50.3379733 C35.6014933,54.8819733 34.34816,57.6665067 31.68736,59.3571733 L29.8420267,60.42544 C30.94656,58.28944 31.19296,55.8755733 31.2372267,53.77104 L31.2372267,32.9299733 C31.2372267,31.96624 31.21216,31.0345067 31.13216,30.0403733 C30.8852267,27.4665067 30.37216,25.30544 29.4158933,22.56464 C28.2862933,19.6137067 27.16256,17.55184 25.6868267,15.1443733 C23.32896,11.7673067 21.3476267,9.39717333 17.53216,6.51397333 C15.1182933,4.97690667 12.3956267,3.55664 9.50656,3.42117333 M19.2110933,56.2521067 C18.76736,56.2521067 18.3156267,56.1971733 17.8228267,56.10384 C16.42656,55.75824 15.3406933,55.2275733 14.0500267,54.27024 C13.78496,54.0793067 13.6862933,53.73904 13.78496,53.4313067 C14.17376,52.3881067 14.6676267,51.35664 15.2420267,50.36304 C15.8526933,49.30704 16.5502933,48.3129067 17.30976,47.4121067 C17.45216,47.25104 17.65536,47.1587733 17.8590933,47.1587733 C18.0878933,47.1587733 18.27296,47.2451733 18.4148267,47.4057067 C19.5198933,48.6963733 23.40896,52.74544 26.8724267,50.9369067 C27.19936,50.7523733 27.65056,50.88144 27.8356267,51.2265067 C28.0206933,51.57904 27.9156267,52.01104 27.5700267,52.2083733 L21.6500267,55.6227733 C20.7486933,56.0857067 19.97056,56.2521067 19.2110933,56.2521067 M15.3652267,53.4185067 C16.3038933,54.06064 17.1246933,54.4307733 18.1252267,54.6841067 C19.31616,54.9065067 20.0142933,54.8323733 20.9764267,54.3449067 L23.7796267,52.7145067 C21.2798933,52.19664 19.09376,50.2457067 17.9028267,48.9923733 C17.3902933,49.6531733 16.92096,50.35664 16.48896,51.0915733 C16.0564267,51.84464 15.6676267,52.6281067 15.3652267,53.4185067 M7.58069333,41.5225067 C7.50069333,41.5225067 7.43882667,41.5107733 7.35829333,41.4857067 C7.06816,41.38704 6.86496,41.12144 6.86496,40.81264 C6.82122667,39.5721067 6.84629333,38.3187733 6.84629333,37.07184 L6.86496,19.27984 C6.86496,17.02704 7.06816,14.49584 9.56842667,12.9155733 L15.5070933,9.48944 C15.83456,9.29157333 16.2852267,9.40250667 16.48896,9.74224 C16.6932267,10.0755733 16.5934933,10.51344 16.2414933,10.7305067 C14.5444267,11.81104 14.2356267,13.40304 14.2356267,15.97744 L14.2356267,34.8243733 C14.2356267,35.0467733 14.1124267,35.2627733 13.9268267,35.3987733 C11.8222933,37.0035733 10.1422933,38.6953067 8.15509333,41.2451733 C8.01269333,41.42384 7.80949333,41.5225067 7.58069333,41.5225067 M13.17376,12.5081067 L10.3038933,14.1561067 C8.64256,15.2121067 8.31562667,16.8419733 8.31562667,19.27984 L8.29696,37.0841067 L8.29696,38.77584 C9.75349333,37.0473067 11.1428267,35.7193067 12.7844267,34.46064 L12.7844267,15.97744 C12.7844267,14.80464 12.82176,13.6131733 13.17376,12.5081067" id="Fill-11" fill="#00C4B5"></path>
                        <path d="M9.93306667,4.18037333 C11.6984,4.35317333 13.5997333,4.99530667 15.6312,6.16224 C19.7234667,8.52597333 23.4525333,12.60704 26.1373333,17.2801067 C27.508,19.6571733 28.6136,22.1883733 29.372,24.71904 C30.0888,27.1329067 30.4962667,29.55904 30.4962667,31.8561067 C30.4962667,31.9291733 30.4962667,32.0097067 30.5149333,32.09024 L30.5149333,53.7707733 C30.5149333,56.09184 30.1074667,58.0795733 29.3906667,59.67264 C28.6317333,61.3451733 27.508,62.6049067 26.1373333,63.3947733 L26.1373333,63.3889067 C24.7613333,64.1851733 23.1250667,64.5185067 21.3037333,64.3393067 C19.5629333,64.1729067 17.6376,63.5307733 15.6312,62.36384 C14.9144,61.9499733 14.1992,61.48064 13.5010667,60.9627733 L13.5010667,58.7899733 L13.5010667,58.64704 C13.5010667,57.40704 13.7229333,56.0801067 14.1122667,54.7515733 C14.2168,54.4001067 14.3405333,54.0417067 14.4642667,53.6843733 C14.828,53.94944 15.18,54.1963733 15.5688,54.4123733 L15.6312,54.4497067 C16.6930667,55.0731733 17.7421333,55.4187733 18.6808,55.5051733 C19.6616,55.6043733 20.5448,55.4187733 21.2797333,54.99264 L21.3037333,54.99264 C22.0381333,54.56704 22.6376,53.8939733 23.0450667,52.9867733 C23.4338667,52.1281067 23.6562667,51.0545067 23.6562667,49.81344 L23.6562667,28.1323733 L23.6562667,27.99104 C23.6562667,26.74944 23.4525333,25.42944 23.0450667,24.10144 C22.6376,22.7313067 22.0381333,21.35424 21.3037333,20.0705067 C20.5448,18.7921067 19.6616,17.59424 18.6808,16.5515733 C17.7421333,15.5515733 16.7170667,14.69984 15.6312,14.0763733 L15.612,14.0763733 C14.5442667,13.4529067 13.5010667,13.1073067 12.5565333,13.0139733 C11.5746667,12.92224 10.6925333,13.1009067 9.95706667,13.5265067 C9.2168,13.9467733 8.6424,14.60064 8.21626667,15.47104 L8.19173333,15.5265067 C7.80933333,16.3793067 7.58053333,17.44064 7.58053333,18.66304 L7.58053333,18.6939733 L7.58053333,18.85504 L7.58053333,40.3867733 L7.58053333,40.54144 L7.58053333,40.80064 L7.31546667,41.14624 L6.1672,42.80064 L5.10533333,44.5233067 L4.61093333,45.41824 L4.1176,46.33184 L3.6664,47.2513067 L3.38266667,47.8875733 C2.79013333,46.54144 2.27813333,45.1713067 1.86426667,43.80064 C1.14853333,41.3873067 0.7592,38.96064 0.741066667,36.65184 L0.741066667,36.5841067 L0.741066667,36.4113067 L0.741066667,14.90304 L0.741066667,14.7681067 C0.741066667,12.4347733 1.14853333,10.4459733 1.86426667,8.84704 C2.6232,7.18037333 3.7288,5.92170667 5.10533333,5.13717333 L5.10533333,5.13130667 C6.476,4.34144 8.11173333,4.00117333 9.93306667,4.18037333" id="Fill-13" fill="#85D6D3"></path>
                        <path d="M22.2672,65.1173333 C21.9152,65.1173333 21.5877333,65.0922667 21.2426667,65.0618667 C19.3349333,64.8762667 17.3098667,64.1786667 15.2608,62.9872 C14.52,62.568 13.7850667,62.0805333 13.0688,61.5493333 C12.8842667,61.4133333 12.7845333,61.1968 12.7845333,60.9626667 L12.7845333,58.7898667 C12.76,57.3632 12.9888,55.9802667 13.4213333,54.5482667 C13.52,54.1776 13.6432,53.8074667 13.7850667,53.4314667 C13.8714667,53.2208 14.0501333,53.0544 14.2538667,52.9866667 C14.4826667,52.9253333 14.7296,52.968 14.9146667,53.104 C15.2421333,53.3509333 15.5690667,53.5792 15.9146667,53.7829333 C16.9392,54.3754667 17.8842667,54.7029333 18.7424,54.7834667 C19.5813333,54.8629333 20.2981333,54.7210667 20.9338667,54.3632 C20.952,54.3509333 20.9765333,54.3386667 20.9952,54.3322667 C21.5877333,53.9685333 22.0384,53.4181333 22.3909333,52.6901333 C22.7546667,51.8874667 22.9397333,50.9248 22.9397333,49.8133333 L22.9397333,28.1322667 C22.9397333,26.8426667 22.736,25.608 22.3472,24.3114667 C21.9584,22.9962667 21.384,21.6938667 20.6682667,20.4352 C19.952,19.1877333 19.1125333,18.0517333 18.1493333,17.0517333 C17.2298667,16.0704 16.2602667,15.2805333 15.2608,14.7061333 C14.2976,14.1504 13.3589333,13.8229333 12.4949333,13.7365333 C11.6549333,13.6565333 10.9392,13.7984 10.3034667,14.1562667 C9.71093333,14.5082667 9.21653333,15.0517333 8.87146667,15.7797333 C8.48213333,16.6192 8.29706667,17.5765333 8.29706667,18.6629333 C8.29706667,18.7002667 8.31573333,18.8234667 8.31573333,18.8549333 L8.29706667,40.7882667 C8.31573333,40.9546667 8.25973333,41.1152 8.1552,41.2512 L7.8896,41.5909333 L6.76,43.2144 L4.77813333,46.6650667 L4.06186667,48.184 C3.93866667,48.4432 3.66666667,48.616 3.38293333,48.616 C3.0992,48.6101333 2.85226667,48.4432 2.72853333,48.184 C2.11146667,46.8074667 1.59893333,45.3994667 1.1728,44.0042667 C0.413333333,41.4613333 0.0245333333,38.9861333 0.0245333333,36.6517333 C0.0245333333,36.6208 0,36.448 0,36.4112 L0,14.9034667 C0.0245333333,12.3909333 0.413333333,10.2981333 1.21013333,8.54506667 C2.0064,6.792 3.19786667,5.40853333 4.6736,4.53866667 C4.6912,4.5264 4.71626667,4.5136 4.73493333,4.50133333 C6.272,3.61813333 8.0496,3.2608 10.0192,3.45813333 C11.9210667,3.6432 13.9269333,4.34133333 15.9765333,5.53226667 C20.0570667,7.8784 23.8842667,11.9285333 26.7674667,16.9162667 C28.2058667,19.3850667 29.3109333,21.9413333 30.0698667,24.5088 C30.8229333,27.0709333 31.2117333,29.5402667 31.2117333,31.856 C31.2368,31.8922667 31.2368,32.0528 31.2368,32.0901333 L31.2368,53.7712 C31.2368,56.1413333 30.8229333,58.2341333 30.0453333,59.9749333 C29.224,61.7776 28.0394667,63.1418667 26.5018667,64.024 C26.4837333,64.0426667 26.44,64.056 26.4224,64.0677333 C25.1744,64.7653333 23.7792,65.1173333 22.2672,65.1173333 L22.2672,65.1173333 Z M14.2170667,60.5984 C14.8096,61.0122667 15.4021333,61.3946667 15.9765333,61.7338667 C17.8592,62.8208 19.6869333,63.4501333 21.3658667,63.6170667 C23.0448,63.784 24.52,63.4938667 25.7856,62.7584 C25.8106667,62.7466667 25.8293333,62.7338667 25.848,62.7221333 C27.0762667,61.9936 28.0394667,60.8634667 28.7178667,59.376 C29.4346667,57.8261333 29.7797333,55.9370667 29.7797333,53.7712 L29.7797333,32.0901333 C29.7797333,32.0650667 29.7610667,31.9354667 29.7797333,31.8181333 C29.7610667,29.6826667 29.3909333,27.3493333 28.6752,24.9285333 C27.9344,22.4650667 26.8725333,20.0149333 25.5205333,17.6384 C22.7546667,12.8661333 19.1125333,9.0144 15.2608,6.7856 C13.3776,5.7056 11.5749333,5.0688 9.87733333,4.90293333 C8.2352,4.7424 6.784,5.01973333 5.51253333,5.7296 C5.51253333,5.7424 5.4944,5.75466667 5.46933333,5.76053333 C4.20373333,6.48906667 3.22293333,7.62506667 2.54346667,9.144 C1.8272,10.7056 1.4816,12.6010667 1.4816,14.768 C1.4816,14.8112 1.45653333,14.9898667 1.43786667,15.0330667 L1.45653333,36.4112 C1.45653333,36.4298667 1.4816,36.6149333 1.4816,36.6266667 C1.4816,38.8373333 1.84533333,41.1770667 2.56213333,43.5968 C2.80853333,44.4309333 3.0992,45.2634667 3.42026667,46.0976 L4.46933333,44.1712 L5.55573333,42.4176 L6.8464,40.5536 C6.8464,40.5168 6.86506667,40.3312 6.86506667,40.3008 L6.86506667,18.8549333 L6.8464,18.6629333 C6.8464,17.36 7.0928,16.2058667 7.5376,15.2245333 C8.0496,14.1562667 8.72906667,13.4032 9.5872,12.9034667 C10.4698667,12.3968 11.4944,12.1872 12.6368,12.2922667 C13.7045333,12.3968 14.8096,12.7733333 15.9392,13.4218667 C15.9765333,13.4341333 16.0016,13.4528 16.0197333,13.4714667 C17.1061333,14.0944 18.1925333,14.9717333 19.2112,16.0517333 C20.2357333,17.1381333 21.1376,18.3669333 21.9152,19.7125333 C22.6933333,21.0645333 23.3104,22.472 23.7365333,23.8917333 C24.168,25.3178667 24.3973333,26.7008 24.3973333,27.9909333 C24.3973333,28.0096 24.3786667,28.176 24.3786667,28.1952 L24.3786667,49.8133333 C24.3786667,51.1344 24.1498667,52.3072 23.6992,53.2890667 C23.2304,54.3077333 22.5322667,55.1162667 21.6501333,55.6224 C21.6314667,55.6410667 21.6064,55.6533333 21.5690667,55.6656 C20.7056,56.1413333 19.7050667,56.3386667 18.6186667,56.2277333 C17.5322667,56.1285333 16.4085333,55.7402667 15.2608,55.0794667 C15.1184,54.9930667 14.9701333,54.9061333 14.8533333,54.8261333 C14.8282667,54.8757333 14.8282667,54.9189333 14.8096,54.9621333 C14.4208,56.2645333 14.2170667,57.5056 14.2170667,58.6469333 L14.2170667,60.5984 Z" id="Fill-15" fill="#00C4B5"></path>
                    </g>
                </g>
            </g>
        </g>
    </g>
</svg>