<?xml version="1.0" encoding="UTF-8"?>
<svg width="66px" height="96px" viewBox="0 0 66 96" version="1.1" xmlns="http://www.w3.org/2000/svg" xmlns:xlink="http://www.w3.org/1999/xlink">
    <title>Group 38</title>
    <defs>
        <polygon id="path-1" points="0.0636327869 0.187803279 43.0164004 0.187803279 43.0164004 53.1352131 0.0636327869 53.1352131"></polygon>
    </defs>
    <g id="Website" stroke="none" stroke-width="1" fill="none" fill-rule="evenodd">
        <g id="Desktop---Algo-Foundation-Home" transform="translate(-842.000000, -1938.000000)">
            <g id="Section---Algorand-Protocol" transform="translate(70.000000, 1772.000000)">
                <g id="Group-38" transform="translate(772.000000, 166.000000)">
                    <path d="M63.2711869,30.3608131 L51.1274492,23.3601574 C49.6087607,22.770518 48.9409574,23.0317639 47.4836459,23.7184525 L5.95026885,47.666518 C2.91446557,49.6158951 0.910531148,53.0823869 0.728498361,56.6957639 L0.728498361,84.3789115 C0.850203279,86.0119607 0.971383607,86.6797639 2.2461377,87.7488787 L14.3909246,94.7432393 C13.0547934,93.6746492 12.993941,93.0073705 12.8119082,91.3737967 L12.8732852,63.6969443 C12.993941,60.0961574 15.0587279,56.5987148 18.0950557,54.6614033 L59.5670557,30.7133377 C61.0852197,30.0271738 61.6921705,29.7659279 63.2711869,30.3608131" id="Fill-1" fill="#ABECFF"></path>
                    <path d="M14.391082,95.4601967 C14.269377,95.4601967 14.1481967,95.424 14.0264918,95.362623 L1.88170492,88.3677377 C0.303737705,87.074623 0.182032787,86.2305574 0,84.439082 L0,56.6956066 C0.182032787,52.8157377 2.30767213,49.1357377 5.58636066,47.0657049 L47.1192131,23.0987541 C48.8199344,22.3213115 49.608918,22.0180984 51.4302951,22.6921967 L63.6354098,29.7421639 C63.9391475,29.9241967 64.0608525,30.3307541 63.9391475,30.6643934 C63.7571148,30.9985574 63.3321967,31.1569836 63.028459,31.0289836 C61.6923279,30.5311475 61.2674098,30.7194754 59.8704262,31.362623 L18.4592787,55.2813115 C15.6658361,57.0601967 13.7227541,60.3819016 13.5407213,63.7272131 L13.5407213,91.3736393 C13.7227541,92.8372459 13.7227541,93.2983607 14.816,94.1906885 C15.1197377,94.4278033 15.1800656,94.8469508 14.9975082,95.1501639 C14.816,95.351082 14.6334426,95.4601967 14.391082,95.4601967 M49.6702951,23.7366557 C49.1231475,23.7366557 48.637377,23.9611803 47.787541,24.3677377 L6.3144918,48.2859016 C3.46072131,50.0952131 1.57901639,53.3314098 1.45731148,56.7265574 L1.45731148,84.3787541 C1.57901639,85.8423607 1.63934426,86.2971803 2.73206557,87.1958033 L12.2654426,92.7218361 C12.2051148,92.3451803 12.1442623,91.9265574 12.1442623,91.4402623 L12.1442623,63.6967869 C12.3262951,59.810623 14.4514098,56.130623 17.6697705,54.0600656 L59.2031475,30.0941639 C59.6883934,29.8811803 60.1138361,29.6991475 60.4784262,29.5659016 L50.7630164,23.9790164 C50.3370492,23.8153443 49.9729836,23.7366557 49.6702951,23.7366557" id="Fill-3" fill="#00B1FE"></path>
                    <path d="M59.567318,30.7132852 L18.0947934,54.6613508 C15.241023,56.3132852 12.873023,60.3820066 12.873023,63.6905967 L12.8121705,91.3737443 C12.8121705,94.6886295 15.1801705,96.0425967 18.033941,94.3917115 L59.567318,70.4425967 C62.481941,68.7848918 64.7890885,64.7229902 64.7890885,61.4081049 L64.7890885,33.7312525 C64.7890885,30.4158426 62.481941,29.0618754 59.567318,30.7132852" id="Fill-5" fill="#FFFFFF"></path>
                    <path d="M15.7266361,95.8121443 C15.1196852,95.8121443 14.5730623,95.6668328 14.0264393,95.3630951 C12.8120131,94.6590951 12.1442098,93.2437508 12.1442098,91.3735869 L12.1442098,63.6909639 C12.1442098,60.1447344 14.6333902,55.8152918 17.7305705,54.042177 L59.2030951,30.0941115 C60.8424393,29.1650623 62.4214557,29.0375869 63.6353574,29.7421115 C64.8503082,30.4461115 65.5181115,31.8609311 65.5181115,33.7310951 L65.5181115,61.4079475 C65.5181115,64.954177 62.9680787,69.2830951 59.9317508,71.0625049 L18.3983738,95.0110951 C17.4871607,95.5446033 16.5764721,95.8121443 15.7266361,95.8121443 L15.7266361,95.8121443 Z M59.5671607,30.7131279 L59.9317508,31.3326689 L18.4592262,55.281259 C15.7874885,56.7988984 13.5406689,60.6551607 13.5406689,63.6909639 L13.5406689,91.3735869 C13.5406689,92.7091934 13.9661115,93.6870295 14.7545705,94.1240131 C15.4837508,94.5672918 16.5161443,94.4335213 17.7305705,93.7720131 L59.2030951,69.8239475 C61.8743082,68.305259 64.0608,64.4500459 64.0608,61.4079475 L64.0608,33.7310951 C64.0608,32.3954885 63.6962098,31.4176525 62.9072262,30.9738492 C62.1780459,30.5431607 61.0853246,30.664341 59.9317508,31.3326689 L59.5671607,30.7131279 Z" id="Fill-7" fill="#00B1FE"></path>
                    <path d="M38.8003672,51.6435934 C41.7763672,49.9559869 44.1443672,51.3277902 44.1443672,54.7103475 C44.1443672,56.7751344 43.2331541,59.100118 41.897023,60.9949377 L41.897023,70.5891672 C41.897023,72.2038557 40.7434492,74.1894295 39.3469902,74.997823 L38.3145967,75.6110689 C36.9181377,76.4184131 35.7645639,75.7563803 35.7645639,74.1411672 L35.7645639,64.5474623 C34.3681049,64.2132984 33.5182689,62.8950033 33.5182689,60.8370361 C33.5182689,57.4550033 35.8857443,53.3317246 38.8003672,51.6435934" id="Fill-9" fill="#00D0FD"></path>
                    <path d="M37.161023,76.6671738 C36.7969574,76.6671738 36.4323672,76.5821902 36.1286295,76.4064525 C35.4608262,75.9993705 35.0359082,75.173141 35.0359082,74.1412721 L35.0359082,65.0569443 C33.6394492,64.4436984 32.7896131,62.9076984 32.7896131,60.837141 C32.7896131,57.1697311 35.2787934,52.8581246 38.4971541,51.0241574 C40.1364984,50.0767475 41.7155148,49.9497967 42.9294164,50.6543213 C44.1443672,51.3703869 44.873023,52.8098623 44.873023,54.7104525 C44.873023,56.7988459 44.0226623,59.1547803 42.6256787,61.2200918 L42.6256787,70.5892721 C42.6256787,72.4715016 41.3509246,74.6816 39.7110557,75.6164197 L38.6183344,76.2296656 C38.1330885,76.5218623 37.647318,76.6671738 37.161023,76.6671738 M41.2297443,51.6316328 C40.6222689,51.6316328 39.8936131,51.8446164 39.1649574,52.2632393 C36.4932197,53.8359607 34.2464,57.6796328 34.2464,60.837141 C34.2464,62.4890754 34.8538754,63.5875672 35.9465967,63.8488131 C36.250859,63.9275016 36.4932197,64.2134033 36.4932197,64.5470426 L36.4932197,74.1412721 C36.4932197,74.6511738 36.6149246,75.0215344 36.8578098,75.1673705 C37.1006951,75.3132066 37.4647607,75.246059 37.9505311,74.9911082 L38.9829246,74.3778623 C40.1973508,73.6979934 41.1688918,71.9610754 41.1688918,70.5892721 L41.1688918,60.9950426 C41.1688918,60.8492066 41.2297443,60.6976 41.3509246,60.5758951 C42.6256787,58.7356328 43.4157115,56.5438951 43.4157115,54.7104525 C43.4157115,53.3438951 42.9902689,52.3361574 42.2007607,51.8923541 C41.897023,51.7166164 41.5938098,51.6316328 41.2297443,51.6316328" id="Fill-11" fill="#00B1FE"></path>
                    <path d="M46.9371803,13.9725115 C46.3905574,12.1931016 45.6619016,10.4268066 44.3262951,9.08490492 C44.5691803,9.15205246 44.811541,9.19401967 45.0549508,9.25434754 C48.8802623,10.4084459 51.8557377,13.9546754 51.8557377,19.4371672 L51.9160656,30.0512 L47.4229508,27.4592 L47.4838033,19.2551344 C47.4838033,17.0209049 47.1805902,15.0290361 46.9371803,13.9725115" id="Fill-13" fill="#00D0FD"></path>
                    <path d="M51.9161705,30.7681049 C51.7949902,30.7681049 51.6738098,30.7376787 51.5521049,30.6705311 L47.0584656,28.0780066 C46.8161049,27.9505311 46.6944,27.713941 46.6944,27.4589902 L46.7547279,19.2554492 C46.7547279,17.1298098 46.5123672,15.1872525 46.269482,14.154859 C45.6620066,12.1026623 44.873023,10.6511213 43.8401049,9.58253115 C43.5982689,9.35171148 43.5363672,8.98712131 43.7189246,8.70751475 C43.9009574,8.42843279 44.2655475,8.30148197 44.5692852,8.40430164 C44.6296131,8.43525246 44.751318,8.45938361 44.873023,8.48351475 C44.9942033,8.50712131 45.1153836,8.53807213 45.2376131,8.57426885 C49.7307279,9.92876066 52.5844984,14.0940066 52.5844984,19.4369574 L52.6453508,30.0515148 C52.6453508,30.3064656 52.4627934,30.5430557 52.2807607,30.6705311 C52.1590557,30.7376787 52.0378754,30.7681049 51.9161705,30.7681049 L51.9161705,30.7681049 Z M48.1517115,27.0519082 L51.1875148,28.8129574 L51.1271869,19.443777 C51.1271869,15.3813508 49.3047607,12.1142033 46.3303344,10.547777 C46.8161049,11.4584656 47.241023,12.5155148 47.6050885,13.7724328 C47.6050885,13.7907934 47.6050885,13.7960393 47.6654164,13.8149246 C47.9088262,14.9684984 48.2120393,17.0086295 48.1517115,19.2612197 L48.1517115,27.0519082 Z" id="Fill-15" fill="#00B1FE"></path>
                    <path d="M35.2788984,1.84031475 C38.922177,0.954281967 41.7764721,0.905495082 45.2371934,2.64188852 L49.6705049,5.13159344 C45.9055213,3.2189377 42.6257836,3.44923279 38.6787672,4.64582295 C35.704341,5.72647869 33.5787016,6.92254426 30.9672918,8.7444459 C28.2955541,10.7966426 26.1709639,12.800577 23.9236197,15.3689705 C21.9805377,17.676118 20.4628984,19.8195934 18.883882,22.382741 C16.9408,25.7343475 15.4840131,29.0555279 14.2087344,32.7475934 C13.4192262,35.4917246 12.629718,37.7815607 12.629718,40.6416262 L12.5693902,52.7549377 L8.13660328,50.1802492 L8.07627541,39.438741 C8.07627541,36.6033311 8.68322623,34.3323803 9.41135738,31.5814295 C10.5654557,27.6837246 11.8402098,24.6411016 13.7224393,21.1378885 C15.4840131,18.0837246 17.2445377,15.5940197 19.4908328,12.8797902 C22.0419148,9.93421639 24.4099148,7.75454426 27.6282754,5.49618361 C30.2391607,3.80805246 32.303423,2.7389377 35.2788984,1.84031475" id="Fill-17" fill="#00D0FD"></path>
                    <g id="Group-21" transform="translate(7.344262, 0.336787)">
                        <mask id="mask-2" fill="white">
                            <use xlink:href="#path-1"></use>
                        </mask>
                        <g id="Clip-20"></g>
                        <path d="M5.22507541,53.1352131 C5.10337049,53.1352131 4.98219016,53.0984918 4.86100984,53.0376393 L0.427698361,50.4629508 C0.245665574,50.3354754 0.0636327869,50.0988852 0.0636327869,49.8439344 L0.0636327869,39.1019016 C0.0636327869,36.157377 0.671108197,33.7951475 1.33891148,31.0688525 C2.49248525,27.243541 3.76776393,24.1836066 5.77117377,20.4674098 C7.59307541,17.3272131 9.29379672,14.8259672 11.6004197,12.087082 C14.3330098,8.93009836 16.7618623,6.75619672 19.858518,4.576 C22.348223,2.97337705 24.5341902,1.79567213 27.7520262,0.817836066 L27.7520262,0.811540984 C31.3344525,-0.0508852459 34.4321574,-0.232918033 38.197141,1.66819672 L42.6288787,4.17521311 C42.9929443,4.36354098 43.1151738,4.78845902 42.9326164,5.13468852 C42.7505836,5.47462295 42.3261902,5.60209836 42.0224525,5.43213115 C38.3177967,3.56196721 35.1602885,3.89613115 31.5170098,4.99514754 C28.8447475,5.96668852 26.7810098,7.05363934 24.0484197,8.99672131 C21.4983869,10.9277377 19.4336,12.8771148 17.1264525,15.499541 C15.244223,17.7348197 13.7255344,19.872 12.146518,22.4157377 C10.2039607,25.8229508 8.74717377,29.0775082 7.59307541,32.6352787 L7.35071475,33.442623 C6.62153443,35.7985574 6.01405902,37.8392131 6.01405902,40.3105574 L5.95373115,52.424918 C5.95373115,52.6735738 5.83150164,52.9096393 5.58914098,53.0376393 C5.46796066,53.0984918 5.34625574,53.1352131 5.22507541,53.1352131 L5.22507541,53.1352131 Z M1.52041967,49.4305574 L4.49589508,51.1853115 L4.61812459,40.3047869 C4.61812459,37.6330492 5.22507541,35.5016393 5.95373115,33.0302951 L6.19661639,32.2103607 C7.41051803,28.5366557 8.92920656,25.1971148 10.933141,21.687082 C12.5724852,19.0641311 14.0896,16.8723934 16.0332066,14.5767869 C18.4012066,11.8562623 20.5871738,9.85285246 23.1985836,7.84262295 C25.6274361,6.11252459 27.8134033,4.81311475 31.0926164,3.64118033 C32.9737967,3.07672131 34.9174033,2.62714754 37.042518,2.68118033 C33.9458623,1.25481967 31.2741246,1.43055738 28.1166164,2.19593443 C25.0802885,3.11291803 23.0160262,4.24236066 20.6480262,5.75422951 C17.6730754,7.85521311 15.3648787,9.96196721 12.693141,13.0108852 C10.4468459,15.6700328 8.74717377,18.1109508 6.9856,21.1588197 C5.04251803,24.7664262 3.82861639,27.752918 2.73537049,31.4512787 C2.06704262,34.0626885 1.4600918,36.3336393 1.4600918,39.1019016 L1.52041967,49.4305574 Z" id="Fill-19" fill="#00B1FE" mask="url(#mask-2)"></path>
                    </g>
                    <path d="M34.2466098,6.61340328 C46.2696918,-0.127055738 56.0454295,5.33812459 56.0454295,18.8054033 L55.984577,27.6835672 L51.9163803,30.0515672 L51.8555279,19.4370098 C51.8555279,9.69799344 43.536577,6.01222295 34.2466098,11.1972721 C24.8957902,16.462059 16.5763148,28.9646164 16.6382164,39.6631082 L16.6980197,50.3925508 L12.5694951,52.7547803 L12.5694951,41.1880918 C12.5694951,28.1084852 22.8913311,13.0134033 34.2466098,6.61340328" id="Fill-22" fill="#00D0FD"></path>
                    <path d="M12.5693377,53.472 C12.4476328,53.472 12.3264525,53.4352787 12.2052721,53.3744262 C12.0227148,53.2464262 11.8401574,53.0103607 11.8401574,52.7548852 L11.8401574,41.1881967 C11.9015344,28.3693115 21.5560918,12.9159344 33.9432393,5.98714754 C40.076223,2.55108197 45.8440918,2.06531148 50.2165508,4.61534426 C54.4059279,7.09298361 56.7739279,12.1269508 56.7739279,18.8055082 L56.7130754,27.6836721 C56.7130754,27.938623 56.5918951,28.1746885 56.3490098,28.3026885 L52.2808131,30.6706885 C52.0379279,30.7981639 51.794518,30.7981639 51.5521574,30.6706885 C51.3097967,30.5432131 51.1875672,30.306623 51.1875672,30.0511475 L51.1272393,19.4439344 C51.1272393,15.4114098 49.6704525,12.3152787 46.9373377,10.7241967 C43.718977,8.8482623 39.2253377,9.24852459 34.6110426,11.8226885 C25.0781902,17.1782295 17.3053377,29.6687213 17.3667148,39.6574426 L17.4270426,50.3868852 C17.4270426,50.6413115 17.2444852,50.8789508 17.0624525,51.0127213 L12.9334033,53.3744262 C12.812223,53.4352787 12.690518,53.472 12.5693377,53.472 L12.5693377,53.472 Z M43.9623869,4.43331148 C41.1689443,4.43331148 37.9505836,5.36865574 34.6110426,7.232 C22.8916984,13.8145574 13.2979934,29.0497049 13.2979934,41.1881967 L13.2979934,51.5163279 L15.9692066,49.9803279 L15.9692066,39.6632131 C15.9083541,29.2076066 23.9844197,16.1584262 33.9432393,10.5783607 C38.982977,7.74872131 43.9623869,7.35422951 47.605141,9.49140984 C50.8235016,11.3495082 52.5845508,14.8831475 52.5845508,19.4371148 L52.6454033,28.8188852 L55.3166164,27.2708197 L55.3166164,18.8055082 C55.3166164,12.6609836 53.2518295,8.05245902 49.4873705,5.84865574 C47.8480262,4.90072131 45.9657967,4.43331148 43.9623869,4.43331148 L43.9623869,4.43331148 Z M34.2464525,6.6135082 L34.3073049,6.6135082 L34.2464525,6.6135082 Z" id="Fill-24" fill="#00B1FE"></path>
                    <path d="M40.0150557,74.5416393 C39.7721705,74.7179016 39.5896131,74.8695082 39.3472525,74.9975082 L38.314859,75.6107541 C36.9184,76.4180984 35.7643016,75.7560656 35.7643016,74.1408525 L35.7643016,72.0949508 L40.0150557,74.5416393 Z" id="Fill-26" fill="#00D0FD"></path>
                    <path d="M37.161023,76.6671738 C36.7969574,76.6671738 36.4323672,76.5821902 36.1286295,76.4064525 C35.4608262,75.9993705 35.0359082,75.173141 35.0359082,74.1412721 L35.0359082,72.0948459 C35.0359082,71.8398951 35.1576131,71.6027803 35.4004984,71.4753049 C35.5820066,71.3536 35.8857443,71.3536 36.1286295,71.4753049 L40.3185311,73.922518 C40.5614164,74.0379279 40.6825967,74.2446164 40.6825967,74.4749115 C40.7434492,74.7057311 40.6222689,74.9302557 40.4397115,75.0823869 C40.1973508,75.2885508 39.953941,75.4705836 39.7110557,75.6164197 L38.6183344,76.2296656 C38.1330885,76.5218623 37.647318,76.6671738 37.161023,76.6671738 L37.161023,76.6671738 Z M36.4932197,73.3271082 L36.4932197,74.1412721 C36.4932197,74.6511738 36.6149246,75.0215344 36.8578098,75.1673705 C37.1006951,75.3069115 37.4647607,75.246059 37.9505311,74.9911082 L38.6183344,74.5845508 L36.4932197,73.3271082 Z" id="Fill-28" fill="#00B1FE"></path>
                    <path d="M38.8003672,51.6435934 C41.7763672,49.9559869 44.1443672,51.3277902 44.1443672,54.7103475 C44.1443672,56.0338885 43.779777,57.4728393 43.1723016,58.8331016 L41.897023,60.9949377 L34.4892852,56.720577 C35.4608262,54.6012328 37.0398426,52.6765115 38.8003672,51.6435934" id="Fill-30" fill="#00D0FD"></path>
                    <path d="M41.8972328,61.7050754 C41.776577,61.7050754 41.6548721,61.6746492 41.5331672,61.6080262 L34.1254295,57.3399607 C33.8211672,57.1579279 33.7005115,56.7566164 33.8211672,56.422977 C34.9138885,54.1032393 36.6151344,52.0872393 38.4973639,51.0244197 C40.1367082,50.0770098 41.7152,49.950059 42.9296262,50.6545836 C44.1440525,51.3706492 44.8732328,52.8101246 44.8732328,54.7101902 C44.8732328,56.1003541 44.5086426,57.6248131 43.7799869,59.1303869 L42.5047082,61.3530754 C42.3835279,61.5781246 42.1406426,61.7050754 41.8972328,61.7050754 M35.4605115,56.434518 L41.6548721,60.0169443 L42.5047082,58.4751738 C43.111659,57.2182557 43.4159213,55.8947148 43.4159213,54.7101902 C43.4159213,53.3441574 42.9904787,52.3364197 42.2009705,51.8926164 C41.4723148,51.4493377 40.3795934,51.5836328 39.1651672,52.2635016 C37.7681836,53.094977 36.3717246,54.6252066 35.4605115,56.434518" id="Fill-32" fill="#00B1FE"></path>
                    <path d="M1.69998689,52.912577 L1.63965902,53.0159213 C1.09303607,54.4123803 0.85015082,55.408577 0.789298361,56.9209705 L0.789298361,84.4393967 C0.971331148,86.0603803 1.0327082,86.7281836 2.3074623,87.7910033 L14.3908721,94.7433967 C13.0552656,93.6811016 12.9938885,93.0190689 12.8732328,91.3923148 L12.8732328,63.8738885 C12.9335607,62.5251672 13.1155934,61.098282 13.7225443,59.8717902 L1.69998689,52.912577 Z" id="Fill-34" fill="#ABECFF"></path>
                    <path d="M14.391082,95.4601967 C14.269377,95.4601967 14.1481967,95.424 14.0264918,95.362623 L2.00393443,88.404459 C0.364590164,87.1228852 0.242360656,86.2856393 0.060852459,84.5057049 L0.121704918,56.9206557 C0.182032787,55.2325246 0.424918033,54.1455738 0.971540984,52.7485902 C1.03239344,52.5613115 1.21442623,52.360918 1.39645902,52.2937705 C1.63934426,52.226623 1.88170492,52.1961967 2.0642623,52.2937705 L14.0873443,59.252459 C14.391082,59.4407869 14.5122623,59.8415738 14.391082,60.1752131 C13.9047869,61.1588197 13.6619016,62.4099672 13.6015738,63.904 L13.5407213,91.392 C13.7227541,92.8430164 13.7227541,93.3051803 14.816,94.1906885 C15.1197377,94.4278033 15.1800656,94.8469508 14.9975082,95.1501639 C14.816,95.351082 14.6334426,95.4601967 14.391082,95.4601967 L14.391082,95.4601967 Z M2.0642623,53.9451803 C1.70019672,54.8805246 1.57901639,55.6999344 1.51763934,56.9447869 L1.51763934,84.439082 C1.63934426,85.890623 1.70019672,86.3459672 2.79291803,87.2382951 L12.2654426,92.7218361 C12.2051148,92.3509508 12.2051148,91.9380984 12.1442623,91.458623 L12.1442623,63.8735738 C12.2051148,62.4519344 12.4474754,61.213377 12.8120656,60.1752131 L2.0642623,53.9451803 Z" id="Fill-36" fill="#00B1FE"></path>
                </g>
            </g>
        </g>
    </g>
</svg>