<?xml version="1.0" encoding="UTF-8"?>
<svg width="95px" height="96px" viewBox="0 0 95 96" version="1.1" xmlns="http://www.w3.org/2000/svg" xmlns:xlink="http://www.w3.org/1999/xlink">
    <title>Group</title>
    <defs>
        <polygon id="path-1" points="0 0.0192967829 37.3535003 0.0192967829 37.3535003 14.7791106 0 14.7791106"></polygon>
    </defs>
    <g id="Website" stroke="none" stroke-width="1" fill="none" fill-rule="evenodd">
        <g id="Desktop---Algo-Foundation-Home" transform="translate(-1153.000000, -1938.000000)">
            <g id="Section---Algorand-Protocol" transform="translate(70.000000, 1772.000000)">
                <g id="Group-66" transform="translate(1083.000000, 166.000000)">
                    <path d="M6.36170745,89.6301019 C7.20939861,84.0197665 7.05655596,77.3579031 8.99576585,72.6613565 C9.64977625,71.0815304 10.560226,69.7548224 11.6448383,68.6797416 C13.2921757,67.028959 15.3502966,65.9988969 17.5330338,65.5874683 C19.7220768,65.1748472 22.0369373,65.3823503 24.2061619,66.2746733 C25.7003564,66.8700522 27.1188804,67.8085863 28.3839611,69.0455553 C29.6421353,70.3054807 30.573905,71.7228224 31.1849753,73.1896547 C32.0747057,75.3413068 32.2906072,77.6545491 31.8735179,79.8300522 C31.4561284,81.9817043 30.4063486,84.0436174 28.7524049,85.6696547 C27.6746991,86.7450335 26.3333472,87.6597168 24.7415616,88.3010087 C20.0208557,90.2257789 13.3059886,90.064487 7.64750751,90.9105988 C7.28597008,90.9568099 6.94515199,90.8646857 6.68120565,90.5901019 C6.4172593,90.3393689 6.30585533,89.9968099 6.36170745,89.6301019" id="Fill-1" fill="#FFE5D7"></path>
                    <path d="M7.46691896,91.7355429 C6.95253888,91.7355429 6.47269104,91.552487 6.10484772,91.164313 C5.65232538,90.7275429 5.45834434,90.1342509 5.55503458,89.5138286 C5.82618765,87.7294807 5.99314347,85.7608845 6.16009929,83.8820273 C6.521937,79.8300522 6.88347443,75.640636 8.24554566,72.3647106 C8.91276839,70.7175056 9.8646568,69.2965863 11.0675795,68.1049342 C12.7914884,66.3876671 14.9742256,65.2440149 17.380071,64.7857789 C19.763996,64.3275429 22.2244924,64.5812571 24.5189338,65.519195 C26.1593648,66.1825491 27.6538597,67.1911453 28.9609796,68.471046 C30.2680996,69.7762882 31.2614266,71.2645863 31.9427625,72.8906236 C32.8814386,75.1576547 33.1318724,77.6083379 32.6802509,79.9677913 C32.2214226,82.3695801 31.0599386,84.5239155 29.3363299,86.2411826 C28.1409142,87.4298534 26.6947645,88.3707727 25.0537329,89.0555925 C21.7518513,90.3849839 17.5329137,90.7516919 13.4662182,91.1184 C11.5540335,91.2773068 9.57969084,91.4388969 7.77320482,91.714077 C7.66840701,91.7355429 7.56451004,91.7355429 7.46691896,91.7355429 L7.46691896,91.7355429 Z M19.7012374,66.1825491 C19.0274085,66.1825491 18.3526788,66.2526112 17.6851558,66.3876671 C15.6069161,66.7785242 13.7094452,67.7623752 12.2215565,69.2506733 C11.1723773,70.2807354 10.3445046,71.5397665 9.7535531,72.9603876 C8.48877267,76.0285118 8.13444197,80.0807851 7.78641715,84.0197665 C7.62006189,85.9200894 7.44619962,87.9125366 7.16844039,89.7675429 C7.15372666,89.8590708 7.181953,89.9505988 7.25852446,90.0182758 C7.33509593,90.1095056 7.42518001,90.1342509 7.52907697,90.1095056 C9.39231596,89.8349217 11.387378,89.6515677 13.3196814,89.4923627 C17.2752732,89.1471205 21.3557816,88.8051578 24.4354559,87.5458286 C25.8743989,86.9501516 27.1325731,86.1252075 28.1823529,85.0951453 C29.6768477,83.6068472 30.6776818,81.7303752 31.0737515,79.6684621 C31.4701214,77.6083379 31.2476138,75.4787478 30.4272481,73.5104497 C29.8362966,72.0680646 28.9540732,70.7637168 27.8000961,69.6173814 C26.6530256,68.4957913 25.3389992,67.6034683 23.9003565,67.028959 C22.5448914,66.4800894 21.1197613,66.1825491 19.7012374,66.1825491 L19.7012374,66.1825491 Z" id="Fill-3" fill="#FF5100"></path>
                    <path d="M31.7485713,52.0558509 L23.664126,36.829118 L26.632096,33.8760745 C27.3686835,33.1432547 28.1473102,32.6629565 28.9190305,32.4339876 C29.7042633,32.1805714 30.5039096,32.2047205 31.2759302,32.4799006 L46.0752426,37.837118 L46.0683361,37.837118 L31.7485713,52.0558509 Z" id="Fill-5" fill="#FFE5D7"></path>
                    <path d="M31.7485713,52.8560795 L31.6299606,52.8560795 C31.3726204,52.8107627 31.150413,52.6515578 31.0321026,52.4225888 L22.9338444,37.1952596 C22.7671889,36.8986137 22.8299475,36.5080547 23.0797806,36.2567255 L26.0552577,33.3024894 C26.8894362,32.4799304 27.7719599,31.9057193 28.6896163,31.6549863 C29.6351989,31.3583404 30.636033,31.3798062 31.5539897,31.7223652 L46.3533021,37.0584149 C46.6034355,37.1490484 46.7911107,37.3568497 46.8676821,37.6078807 C46.9376474,37.8586137 46.8817953,38.1331975 46.7148395,38.3407006 L32.3323161,52.6268124 C32.1794735,52.7889988 31.9707787,52.8560795 31.7485713,52.8560795 L31.7485713,52.8560795 Z M24.6649601,36.9662907 L31.9569658,50.7050236 L44.5945606,38.1576447 L30.9909642,33.2568745 C30.3925057,33.0302907 29.7808348,33.0061416 29.1550507,33.2100671 C28.5019412,33.3937193 27.8485314,33.8066385 27.2092347,34.4479304 L24.6649601,36.9662907 Z" id="Fill-7" fill="#FF5100"></path>
                    <path d="M44.0665178,67.4417888 L59.4084366,75.4789565 L62.3833131,72.5265093 C63.1202008,71.7936894 63.6063545,71.035528 63.8432757,70.2591801 C64.0795962,69.4798509 64.0588769,68.7002236 63.7739109,67.9241739 L58.393189,53.2236522 L58.3859823,53.2236522 L44.0665178,67.4417888 Z" id="Fill-9" fill="#FFE5D7"></path>
                    <path d="M59.4083765,76.3037814 C59.2765535,76.3037814 59.1444302,76.2578683 59.0261198,76.2116571 L43.684201,68.1750857 C43.4544866,68.0376447 43.3016439,67.8325267 43.259905,67.5788124 C43.2250725,67.3042286 43.3088506,67.0537938 43.4890188,66.8698435 L57.8093842,52.6517068 C58.0180789,52.5142658 58.3378774,52.4224398 58.5808041,52.4901168 C58.8312379,52.5601789 59.0816716,52.6976199 59.164549,52.9483528 L64.5449706,67.6494708 C64.8857887,68.5632596 64.914015,69.5506882 64.6218423,70.488328 C64.350389,71.4021168 63.7876638,72.273272 62.9537855,73.0982161 L59.9849146,76.0527503 C59.8254658,76.2116571 59.616771,76.3037814 59.4083765,76.3037814 L59.4083765,76.3037814 Z M45.428529,67.2365516 L59.2555339,74.4943901 L61.7998085,71.9518807 C62.4391051,71.3347379 62.8634011,70.6719801 63.0573822,70.0303901 C63.2522641,69.4129491 63.2312444,68.7925267 63.0090371,68.1965516 L58.0598179,54.6903652 L45.428529,67.2365516 Z" id="Fill-11" fill="#FF5100"></path>
                    <path d="M44.1430592,69.1377093 L62.5081996,51.7813863 L62.3625637,51.9182311 L62.2094208,52.0318211 L62.0565781,52.1472 L61.8971293,52.2610882 L61.723267,52.3764671 L61.5563112,52.4685913 L61.3755425,52.5601193 L61.1950741,52.6516472 L61.0067983,52.7190261 L60.8191232,52.7890882 L60.6176351,52.8561689 L60.4164474,52.9268273 L60.2080529,52.9721441 L59.9993581,53.0183553 L59.7837569,53.0642683 L59.5615495,53.1098832 L59.3318351,53.1319453 L59.102421,53.1557963 L58.8658001,53.1557963 L58.6297798,53.1772621 L58.3859523,53.1772621 L58.1364194,53.1557963 L57.8859857,53.1557963 L57.6283452,53.1319453 L57.3716056,53.1098832 L57.107359,53.0642683 L56.8362059,53.0183553 L56.5647525,52.9721441 L56.286693,52.9268273 L56.0158402,52.8561689 L55.730574,52.7890882 L55.445608,52.6975602 L55.1603418,52.6269019 L54.8753758,52.5142062 L54.5904099,52.4226783 L54.3057442,52.3308522 L54.0138718,52.2154733 L53.735512,52.1018832 L53.450546,51.9635478 L53.16558,51.8508522 L52.8812146,51.713113 L52.6025546,51.5762683 L52.3247953,51.4137839 L52.0398294,51.2763429 L51.7611693,51.1180323 L51.4906168,50.955846 L51.212257,50.7724919 L50.9341975,50.6129888 L50.6630444,50.4305292 L50.3924919,50.246877 L50.1285455,50.0632248 L49.8567919,49.8801689 L49.5928456,49.6750509 L49.3288992,49.4913988 L49.0712588,49.2835975 L48.8145192,49.0799702 L48.5568787,48.8510012 L48.306445,48.6423056 L48.0566118,48.4166161 L47.8064783,48.2088149 L47.5632513,47.979846 L47.3194238,47.750877 L47.0834035,47.5210137 L46.8467826,47.2702807 L46.6170682,47.0404174 L46.388555,46.7899826 L46.1591409,46.5368646 L45.9432394,46.3078957 L45.7273378,46.0571627 L45.5126375,45.8040447 L45.3039427,45.5315478 L45.0955482,45.2784298 L44.8934596,45.027995 L44.6991783,44.7522186 L44.5112028,44.4988025 L44.3235277,44.2239205 L44.1358525,43.9517217 L43.9616899,43.6759453 L43.7878277,43.4228273 L43.614566,43.1482435 L43.4545166,42.8730634 L43.2944672,42.5764174 L43.148531,42.3012373 L42.9956884,42.0266534 L42.8569589,41.7514733 L42.7179291,41.4762932 L42.592412,41.1796472 L42.4674954,40.9053615 L42.3488847,40.6298832 L42.2314751,40.3332373 L42.1341843,40.0580571 L42.0293865,39.7837714 L41.9393024,39.483846 L41.8489181,39.2119453 L41.7723466,38.9367652 L41.7026816,38.6380323 L41.6333169,38.3622559 L41.577765,38.087672 L41.5288193,37.8372373 L41.4873806,37.5620571 L41.4528484,37.2874733 L41.4246221,37.0361441 L41.4039027,36.7824298 L41.3900898,36.531995 L41.3831834,36.278877 L41.3831834,36.0499081 L41.3900898,35.7985789 L41.4039027,35.5693118 L41.4246221,35.3403429 L41.4528484,35.1352248 L41.4873806,34.9059578 L41.5357258,34.6990509 L41.577765,34.470082 L41.6333169,34.2646658 L41.6963757,34.0813118 L41.7654402,33.8761938 L41.8348049,33.6937342 L41.9182828,33.510082 L42.002061,33.3261317 L42.0987512,33.1433739 L42.1963423,32.9835727 L42.3008399,32.8014112 L42.4119436,32.6389267 L42.522747,32.5014857 L42.6485644,32.342877 L42.7806877,32.2048398 L25.4361999,50.5673739 C18.4991254,58.2375354 36.4198511,76.0285416 44.1430592,69.1377093" id="Fill-13" fill="#FFB490"></path>
                    <path d="M39.9232809,71.5178534 C36.1415513,71.5178534 31.8805745,69.0215553 28.7108161,65.8860522 C24.0877013,61.2834186 20.8969233,54.3690335 24.8245891,50.0177292 L42.1822892,31.6548969 C42.4954815,31.3123379 42.9954481,31.3123379 43.3296601,31.6089839 C43.6560647,31.9056298 43.6839908,32.4097789 43.3918181,32.7305739 L43.343473,32.7305739 L43.3780052,32.7544248 L43.1696107,32.9595429 L43.1831233,32.9836919 L43.1696107,32.9595429 L42.947103,33.2099776 L42.9891423,33.2353193 L42.9263837,33.2353193 L42.7041763,33.4645863 L42.81528,33.5099031 L42.6552306,33.5099031 L42.4537426,33.7391702 L42.6690435,33.8304 L42.2033088,36.3028472 L43.1068521,40.3333565 L46.7771777,46.0113689 L52.7137183,50.7049342 L58.1710117,52.3524373 L58.6298399,52.3524373 L60.8744348,51.8965863 L61.0485974,52.0316422 L61.2152529,51.8965863 L61.1458882,51.7591453 L61.2641986,51.8506733 L61.4728934,51.642872 L61.4308541,51.5975553 L61.4936127,51.6217043 L61.7089136,51.4139031 L61.6951007,51.4139031 C61.729633,51.3685863 61.7716722,51.3471205 61.8131109,51.3229714 L61.9455345,51.1849342 L61.9800667,51.2308472 C62.3070719,51.0940025 62.7379741,51.0940025 62.9745949,51.3471205 C63.2733738,51.6676174 63.3913839,52.0557913 63.0718857,52.3762882 L44.7058445,69.7329093 C44.7058445,69.7329093 44.698938,69.7549714 44.6920316,69.7549714 C43.3086405,70.9898534 41.6682094,71.5178534 39.9232809,71.5178534 L39.9232809,71.5178534 Z M40.576991,35.7077665 L26.0344182,51.1178534 C22.8229209,54.6656795 25.7701716,60.6638907 29.8716996,64.7406112 C33.9657206,68.8164373 40.0067588,71.7226733 43.5939067,68.5418534 L59.0187028,53.9561143 L58.3857121,53.9775801 L54.3265236,53.2012323 L48.5713522,49.925605 L43.2741082,44.1322137 L40.8412376,38.5460273 L40.5625775,36.3028472 L40.576991,35.7077665 Z" id="Fill-15" fill="#FF5100"></path>
                    <path d="M36.5375009,48.0492224 L35.6060315,46.3534211 L10.3029158,51.5761789 C5.38852918,52.7889988 4.22704515,54.3905888 0.814059771,57.7798062 L1.75303613,59.474713 C5.17322823,56.0863901 6.31339236,54.506564 11.2343852,53.293446 L36.5375009,48.0492224 Z" id="Fill-17" fill="#FFFFFF"></path>
                    <g id="Group-21" transform="translate(0.000000, 45.518609)">
                        <mask id="mask-2" fill="white">
                            <use xlink:href="#path-1"></use>
                        </mask>
                        <g id="Clip-20"></g>
                        <path d="M1.75309618,14.7791106 L1.63448548,14.7791106 C1.37774587,14.7328994 1.15493792,14.5739925 1.03002133,14.3450236 L0.0982516994,12.6513093 C-0.0756105682,12.3314087 -0.0128519949,11.9399553 0.237581738,11.6892224 L1.23150938,10.6806261 C3.97036559,7.93389317 5.47897359,6.42442733 10.1014878,5.27809193 L35.439436,0.0344645963 C35.7943673,-0.0326161491 36.148698,0.125992547 36.3225603,0.447085714 L37.2543299,2.13990559 C37.3792465,2.36917267 37.3861529,2.64345839 37.2750492,2.87332174 C37.1702514,3.10318509 36.9546502,3.28564472 36.704817,3.33215404 L11.4017013,8.57518509 C7.23771504,9.6052472 6.01377272,10.8422161 3.31665547,13.5433342 L2.32963427,14.5492472 C2.17649134,14.6869863 1.96809685,14.7791106 1.75309618,14.7791106 L1.75309618,14.7791106 Z M1.82936737,12.3981913 L1.94047106,12.6271602 L2.15637257,12.3981913 C4.89462821,9.65116025 6.39632977,8.14109814 11.0329572,6.97150807 L35.2934998,1.95625342 L35.1754897,1.75173168 L10.470232,6.85791801 C6.3197583,7.88798012 5.0895101,9.12554534 2.39929929,11.8269615 L1.82936737,12.3981913 Z" id="Fill-19" fill="#FF5100" mask="url(#mask-2)"></path>
                    </g>
                    <path d="M36.5375009,48.0492224 L11.2343852,53.293446 C9.85820077,53.614241 8.57900689,54.0697938 7.48808872,54.5980919 C6.39626971,55.1484522 5.4581942,55.8118062 4.72070589,56.5446261 L1.75303613,59.474713 L23.2188704,61.2835081 L36.5375009,48.0492224 Z" id="Fill-22" fill="#FFE5D7"></path>
                    <path d="M23.2187203,62.084482 L23.156262,62.084482 L1.68292069,60.2977491 C1.37032894,60.275687 1.09256971,60.0678857 0.988072179,59.771836 C0.876968485,59.4748919 0.946333224,59.1299478 1.17574734,58.9009789 L4.14431794,55.9702957 C4.94366398,55.1697988 5.94449807,54.4605317 7.11919443,53.8860224 C8.28728462,53.2936248 9.60791718,52.8347925 11.0468602,52.4901466 L36.3709955,47.2483081 C36.7325329,47.1788422 37.0802574,47.3618981 37.2541197,47.6585441 C37.427982,47.9796373 37.3652234,48.3698981 37.1147897,48.6218236 L23.8024651,61.855513 C23.6430163,61.9935503 23.441228,62.084482 23.2187203,62.084482 L23.2187203,62.084482 Z M3.57408574,58.8327056 L22.9058283,60.4345938 L34.0216028,49.3999602 L11.4014911,54.0699727 C10.1087846,54.3904696 8.90586194,54.8030907 7.85608217,55.331687 C6.83422846,55.8331528 5.97242413,56.429128 5.29799468,57.1163329 L3.57408574,58.8327056 Z" id="Fill-24" fill="#FF5100"></path>
                    <path d="M43.3296,92.1236571 L40.354123,95.0787876 L38.3587607,93.9571975 L41.3273313,91.0020671 C43.1067921,89.147359 43.9761034,86.9963031 44.5946807,84.5456199 L49.8706048,59.4290981 L51.8728735,60.5509863 L46.5969495,85.669595 C45.9915845,88.0964273 45.0955482,90.2933963 43.3296,92.1236571" id="Fill-26" fill="#FFFFFF"></path>
                    <path d="M40.3540629,95.9036422 C40.2153334,95.9036422 40.0835104,95.8577292 39.9510868,95.7873689 L37.9563251,94.666077 C37.7332168,94.5530832 37.5803742,94.3238161 37.5455417,94.0701019 C37.5110095,93.8196671 37.5947876,93.5665491 37.7749558,93.3828969 L40.7438267,90.431046 C42.1896761,88.9427478 43.106732,87.1089093 43.8021811,84.3404124 L49.0711987,59.2671205 C49.1270508,58.9925366 49.3009131,58.7874186 49.5303272,58.6958907 C49.7732539,58.5796174 50.044407,58.5796174 50.2741214,58.7173565 L52.2757896,59.8416298 C52.5889819,60.0011329 52.7418246,60.3672447 52.6718593,60.7101019 L47.3956349,85.8287106 C46.6383281,88.8726857 45.567829,90.9808099 43.9135851,92.698077 L43.9063783,92.698077 L40.9312016,95.6505242 C40.7783589,95.8121143 40.5699644,95.9036422 40.3540629,95.9036422 L40.3540629,95.9036422 Z M39.6937466,93.7734559 L40.2153334,94.0701019 L42.7451946,91.5523379 C44.1775314,90.0643379 45.1228136,88.1878658 45.8038493,85.4620025 L50.9554573,60.9629217 L50.440777,60.6638907 L45.3939667,84.7071205 C44.8450544,86.9040894 44.0108759,89.4009839 41.9182228,91.576487 L39.6937466,93.7734559 Z" id="Fill-28" fill="#FF5100"></path>
                    <path d="M49.8706649,59.4292174 L44.6019475,84.545441 C44.2677356,85.9201491 43.8161141,87.1794783 43.2669015,88.2554534 C42.7179892,89.3308323 42.0642791,90.2720497 41.3273913,91.0021863 L38.3588207,93.9573168 L36.5520344,72.639354 L49.8706649,59.4292174 Z" id="Fill-30" fill="#FFE5D7"></path>
                    <path d="M38.3588508,94.7821416 C38.2621605,94.7821416 38.1648697,94.7579925 38.0738848,94.7120795 C37.7751059,94.6205516 37.5664112,94.3453714 37.5393859,94.0248745 L35.7455117,72.7069118 C35.7178859,72.4809242 35.80797,72.2272099 35.9749258,72.068005 L49.2935562,58.854887 C49.54399,58.6038559 49.9400596,58.5340919 50.2604587,58.717446 C50.5730504,58.8796323 50.7469127,59.2457441 50.6703412,59.5883031 L45.4013236,84.7072099 C45.053599,86.1489988 44.5809579,87.4757068 43.9963123,88.6220422 C43.3990548,89.8136944 42.6966993,90.7978435 41.9048603,91.5765764 L38.9362897,94.5290236 C38.77594,94.6906137 38.5672453,94.7821416 38.3588508,94.7821416 L38.3588508,94.7821416 Z M37.4072626,72.9606261 L39.0197676,92.1484025 L40.7436765,90.4311354 C41.4178057,89.7677814 42.0222699,88.9180919 42.5366499,87.8886261 C43.0657438,86.858564 43.4891389,85.669595 43.8023312,84.3616696 L48.5149295,61.9230112 L37.4072626,72.9606261 Z" id="Fill-32" fill="#FF5100"></path>
                    <polygon id="Fill-34" fill="#FFFFFF" points="55.3490079 54.7811478 55.6751122 54.873272 56.0018171 54.9409491 56.3216156 55.0104149 56.6345076 55.0777938 56.9407935 55.1237068 57.2464788 55.1484522 57.5452576 55.1940671 57.8443368 55.2155329 58.1362092 55.2393839 58.7064414 55.2393839 58.9769939 55.2155329 59.255654 55.2155329 59.5196003 55.1940671 59.783847 55.1484522 60.0342807 55.1025391 60.2844141 55.056328 60.5342473 55.0104149 60.7708681 54.9409491 61.0068884 54.873272 61.2360023 54.8032099 61.4519038 54.711682 61.6741112 54.6195578 61.8828059 54.5280298 62.0912004 54.415036 62.2860823 54.2987627 62.4809642 54.1860671 62.6683391 54.048328 62.8491078 53.9320547 63.0229701 53.7731478 63.1893253 53.6357068 87.7912866 30.6249242 63.7946903 6.33125963 40.3821391 30.9922286 40.2289962 31.1508373 40.0899664 31.3341913 39.9512369 31.4933963 39.8260201 31.7008994 39.7011035 31.8848497 39.5899998 32.0670112 39.4785958 32.2721292 39.381305 32.4799304 39.2903201 32.7091975 39.2074428 32.9381665 39.1236646 33.1432845 39.0542998 33.3937193 38.9915413 33.6229863 38.9362897 33.8761043 38.8876443 34.1050733 38.8459053 34.3781665 38.817679 34.6315826 38.7903535 34.8820174 38.7693339 35.1571975 38.7624274 35.4317814 38.7624274 35.7075578 38.7693339 36.0036075 38.7831468 36.2787876 38.8113731 36.5778186 38.8459053 36.8744646 38.8804376 37.1952596 38.9287827 37.4945888 38.9852354 37.8124025 39.0542998 38.1117317 39.1308713 38.433123 39.2140489 38.7750857 39.3047336 39.0961789 39.4086305 39.4169739 39.5134283 39.7377689 39.624532 40.080328 39.7494486 40.4008248 39.8812716 40.7216199 40.013395 41.0668621 40.1599317 41.3846758 40.3130747 41.7054708 40.4722232 42.0268621 40.6325728 42.347359 40.8064351 42.6687503 40.9793965 42.9886509 41.1607658 43.3097441 41.348441 43.6305391 41.5430226 43.9516323 41.7373039 44.2697441 41.946299 44.568477 42.1615999 44.8895702 42.3772011 45.1862161 42.5994085 45.5076075 42.8216159 45.8042534 43.0582367 46.1026882 43.294257 46.3999304 43.5383849 46.6986634 43.7816119 46.9953093 44.0320456 47.2952348 44.2887852 47.5668373 44.5527316 47.8661665 44.8169782 48.1407503 45.0809245 48.4165267 45.3523779 48.6884273 45.6301371 48.9662907 45.9087972 49.2167255 46.1937632 49.4913093 46.4787291 49.7432348 46.7636951 49.9963528 47.0552672 50.2470857 47.3546466 50.4975205 47.6534255 50.7264894 47.9522043 50.9802037 48.2581899 51.2094708 48.5638752 51.4387379 48.8701611 51.6429615 49.1824525 51.8722286 49.4956449 52.0773466 49.8079363 52.2848497 50.1283354 52.4685019 50.4481338 52.6736199 50.767632 52.8560795 51.0874305 53.0397317 51.4141354 53.2013217 51.7339339 53.3849739 52.0606388 53.5441789 52.387644 53.7057689 52.7137483 53.8408248 53.0479603 53.9776696 53.3671582 54.1154087 53.7010698 54.253446 54.0277747 54.369123 54.3616864 54.482713 54.6949975 54.5980919 55.0220027 54.6902161"></polygon>
                    <path d="M58.4277813,56.040954 L55.1469193,55.5818236 C55.1397125,55.5579727 55.1331064,55.5579727 55.1331064,55.5579727 L50.0307443,53.3610037 L44.2260267,48.7124571 L39.909498,42.7354137 L38.0738848,37.3114137 L37.9489682,35.7315876 L38.6300038,32.1807801 L39.770168,30.4420472 L63.2037388,5.78078012 C63.3568817,5.62246957 63.5652762,5.53034534 63.7877839,5.50619627 L63.7946903,5.50619627 C64.017198,5.50619627 64.2258928,5.5983205 64.3784351,5.75663106 L88.3750314,30.0505938 C88.5281744,30.2127801 88.611352,30.4178981 88.611352,30.624805 C88.6044455,30.854072 88.5134606,31.0591901 88.3471054,31.2213764 L61.5212685,55.5579727 L58.4277813,56.040954 Z M55.5640085,54.0022957 L58.4421948,54.4149168 L62.0356486,53.4978484 L62.640413,53.0399106 L86.6228961,30.600954 L63.8085032,7.49894161 L39.8329265,33.6228671 L39.5824928,35.7315876 L40.292055,39.5083826 L43.0447241,44.728159 L47.8756329,49.8802584 L54.000149,53.4978484 L55.5640085,54.0022957 Z" id="Fill-36" fill="#FF5100"></path>
                    <path d="M71.1908632,23.0466484 C73.9366259,25.7695304 77.2874533,27.8994186 80.5965417,28.7920398 C83.9050295,29.6623006 86.5393882,29.1366857 88.124868,27.5568596 C89.7163533,25.9773317 90.2520533,23.3674435 89.3686288,20.0921143 C88.4864054,16.7944248 86.3379002,13.4758658 83.5927381,10.7285366 C80.8397687,8.00267329 77.4889413,5.87308323 74.1804535,5.00192795 C70.8713651,4.13405217 68.2367061,4.65936894 66.6443199,6.23919503 C65.059741,7.79487205 64.5243413,10.4292075 65.4074655,13.7024497 C66.2902895,17.0022261 68.4381942,20.3213814 71.1908632,23.0466484" id="Fill-38" fill="#FFE5D7"></path>
                    <path d="M83.6061606,30.029128 C82.6053265,30.029128 81.5210145,29.8675379 80.3880571,29.5708919 C77.0507423,28.6785689 73.5749984,26.5728298 70.6136345,23.6179975 C67.638758,20.6634634 65.5115727,17.2286311 64.6146356,13.910072 C63.6828659,10.4531776 64.1975463,7.52010932 66.0676917,5.66510311 C67.9372366,3.8133764 70.8922946,3.28448199 74.3890582,4.22569938 C77.7254721,5.09357516 81.1940093,7.22346335 84.1691861,10.1538484 C87.1377567,13.1086807 89.264942,16.565277 90.1546724,19.8629665 C91.0933485,23.3434137 90.5786681,26.2737988 88.7082224,28.128805 C87.443442,29.3872398 85.6844002,30.029128 83.6061606,30.029128 M71.1700538,5.39320248 C69.5227163,5.39320248 68.166951,5.87320248 67.2216688,6.81084224 C65.7827258,8.23176149 65.4211883,10.6123826 66.199815,13.4974509 C67.012974,16.5438112 68.9945234,19.7249292 71.7682121,22.4722584 C74.5346941,25.2189913 77.7461914,27.1902708 80.8114523,28.0125317 C83.7172643,28.7706932 86.1086962,28.4254509 87.5476392,26.9824696 C88.9934886,25.5403826 89.3550261,23.1845068 88.5763994,20.296159 C87.7560337,17.2527801 85.781691,14.0683826 83.0080023,11.3216497 C80.2415203,8.55285466 77.030023,6.6063205 73.9647622,5.78078012 C72.970234,5.53034534 72.025252,5.39320248 71.1700538,5.39320248" id="Fill-40" fill="#FF5100"></path>
                    <path d="M93.5884071,0.812303106 L90.2444862,25.6318807 C89.966727,27.6705391 89.2919972,29.2742161 87.7911965,30.6250733 C86.2132238,32.0218435 84.0367925,32.0886261 81.9723658,31.7925764 C81.3123497,31.7010484 80.6238071,31.5636075 79.907939,31.3796571 C76.1820616,30.3958062 72.4000318,27.9913342 69.3071452,24.9232099 L69.3002387,24.9232099 C66.2067515,21.8544894 63.7876938,18.0997565 62.7931656,14.3897441 C62.5991845,13.6810733 62.4670612,12.9929739 62.3904898,12.3543652 C62.0775977,10.2915578 62.1403563,8.11605466 63.5654864,6.56037764 C64.9203509,5.0720795 66.5268503,4.40872547 68.591277,4.13414161 L93.5884071,0.812303106 Z" id="Fill-42" fill="#FFB490"></path>
                    <path d="M83.828428,32.7545739 C83.2098507,32.7545739 82.5498347,32.6851081 81.8474792,32.5935801 C81.1730497,32.5014559 80.443669,32.364313 79.6926681,32.159195 C75.9523772,31.1747478 72.0598443,28.8161888 68.7231301,25.4949466 C65.3930221,22.196959 63.0018904,18.328636 62.0013566,14.5974559 C61.8061744,13.8640398 61.6605385,13.1306236 61.583967,12.4452075 C61.1458581,9.62841242 61.5977799,7.5202882 62.960752,6.00992795 C64.3576557,4.47690932 66.0605451,3.65136894 68.4802034,3.32997764 L93.4842399,0.0120149068 C93.7340731,-0.0344944099 93.9845068,0.0576298137 94.172182,0.241281988 C94.3460442,0.399592547 94.4361283,0.674772671 94.4015961,0.904337888 L91.0513693,25.7480646 C90.7315708,28.1286857 89.8901855,29.8215056 88.3404391,31.2215553 C87.200275,32.250723 85.7195931,32.7545739 83.828428,32.7545739 L83.828428,32.7545739 Z M92.6359482,1.75015155 L68.695204,4.9348472 C66.6653095,5.20972919 65.3101447,5.84893416 64.1699806,7.11005217 C63.1409201,8.23164224 62.8352348,9.85738137 63.2036787,12.2162385 C63.2733437,12.8792944 63.4051668,13.5214807 63.586536,14.1845366 C64.5107987,17.6199652 66.7490877,21.2378534 69.8768068,24.3512944 C73.012033,27.4653317 76.6481266,29.687046 80.1169641,30.6008348 C80.790793,30.7841888 81.4445031,30.900164 82.0627801,30.9669466 C84.4611185,31.3342509 86.1021501,31.037605 87.2414134,30.0051578 C88.5070947,28.8835677 89.1602042,27.5330087 89.4313573,25.5187975 L92.6359482,1.75015155 Z" id="Fill-44" fill="#FF5100"></path>
                    <path d="M71.7538887,37.5620273 C68.0766567,36.5999404 62.9043293,37.9746484 60.2144188,40.6545988 C57.5173016,43.3098037 58.3238543,46.2864 62.0010863,47.248487 C65.6783183,48.2329342 70.8431387,46.8582261 73.540256,44.1776795 C76.2304668,41.5224745 75.4383275,38.5458783 71.7538887,37.5620273" id="Fill-46" fill="#FFE5D7"></path>
                    <path d="M64.6219324,48.3919006 C63.6346109,48.3919006 62.6758161,48.2783106 61.7854851,48.0493416 C59.7141519,47.5001739 58.3448739,46.3317764 57.9277847,44.7975652 C57.5106954,43.2645466 58.1154598,41.5684472 59.6378807,40.058087 C62.5572054,37.173913 67.9727598,35.7318261 71.9622832,36.7824596 C74.0411234,37.3328199 75.4107017,38.4997267 75.8277909,40.034236 C76.2448802,41.5684472 75.6401158,43.2645466 74.1176949,44.7734161 C71.8448736,47.0192795 68.0628438,48.3919006 64.6219324,48.3919006 M69.1402494,38.066236 C66.1302401,38.066236 62.7520872,39.279354 60.7915575,41.2258882 C59.7072455,42.3012671 59.2481169,43.4228571 59.5057574,44.3858385 C59.762497,45.3237764 60.7287989,46.0789565 62.2094808,46.4695155 C65.6368797,47.3856894 70.4605817,46.1028075 72.9565111,43.6065093 C74.0477296,42.530236 74.5065578,41.4089441 74.2498182,40.4471553 C73.9855716,39.508323 73.0330826,38.753441 71.545194,38.3622857 C70.7947936,38.157764 69.9816347,38.066236 69.1402494,38.066236" id="Fill-48" fill="#FF5100"></path>
                    <path d="M77.9896887,37.0362037 L78.4338032,38.662241 C77.9338365,37.6321789 77.2452939,36.9899925 76.2867993,36.3949118 C75.1949803,35.7530236 74.1310874,35.4316323 72.8939327,35.2026634 C71.5871131,34.9736944 70.3844907,34.9280795 69.0566514,34.9975453 C67.4648657,35.1111354 66.0259228,35.3863155 64.4968957,35.8230857 C62.7030214,36.3710609 61.1322554,37.0362037 59.5539824,38.0418186 C58.0453744,39.0289491 56.7529682,40.150241 55.8004792,41.684154 C55.2371535,42.6686012 54.917355,43.5850733 54.9663007,44.7281292 C54.3753491,42.5302658 54.8753158,40.0128 56.1479035,38.1330484 C59.5056373,33.1887503 68.0765366,32.9594832 73.7004855,34.1973466 C75.35533,34.5607752 77.2666138,35.5240547 77.9896887,37.0362037" id="Fill-50" fill="#FFB490"></path>
                    <path d="M54.9663307,45.5314882 C54.5975866,45.5314882 54.2708816,45.2783702 54.1732906,44.9358112 C53.5412006,42.5763578 54.0348614,39.7837118 55.4665976,37.6782708 C58.8594642,32.6850783 67.3820184,31.9516621 73.8743778,33.4178981 C74.7358819,33.6015503 77.6281813,34.4023453 78.7263062,36.6908422 C78.7545325,36.7370534 78.7683454,36.7823702 78.781858,36.8291776 L79.2124599,38.4328547 C79.3244644,38.8451776 79.1085629,39.2580969 78.7124933,39.4170037 C78.3227295,39.5544447 77.871108,39.3707925 77.6909398,39.0040845 C77.3083828,38.2038857 76.7801898,37.6535255 75.8487205,37.0822957 C74.9655963,36.5778484 74.0275207,36.2326062 72.7480266,36.0036373 C71.5799364,35.7985193 70.446979,35.7532025 69.0984203,35.8232646 C67.6111322,35.9147925 66.2136279,36.1658236 64.7191331,36.5999106 C62.9462785,37.1490783 61.438271,37.8124323 59.9849146,38.7295006 C58.3724096,39.7837118 57.2950041,40.8376248 56.495658,42.1181217 C55.9602584,43.0351901 55.7515636,43.7903702 55.7797899,44.6826932 C55.7933025,45.094718 55.494824,45.4608298 55.0843408,45.5314882 L54.9663307,45.5314882 Z M67.4300633,34.3570286 C63.0573822,34.4238112 58.8312379,35.6154634 56.822363,38.5914634 C56.5446037,38.9826186 56.3148893,39.4384696 56.1266136,39.8749416 C56.9052403,38.9826186 57.8859556,38.1576745 59.1023909,37.3568795 C60.6872701,36.3709416 62.3207947,35.6396124 64.2530982,35.0442335 C65.3449172,34.7231404 66.3802835,34.5153391 67.4300633,34.3570286 L67.4300633,34.3570286 Z" id="Fill-52" fill="#FF5100"></path>
                    <path d="M74.1657998,37.0116075 L75.0420176,40.241918 C75.2576188,41.134241 75.0909633,41.8670609 74.6876869,42.6687503 C74.3123366,43.3774211 73.8598142,43.9063155 73.2835764,44.4316323 C72.4974427,45.1408994 71.7056037,45.6447503 70.7666273,46.1026882 C69.6549898,46.6530484 68.5631708,47.0191602 67.3536419,47.2704894 C65.5669744,47.6371975 63.7803069,47.7039801 62.0011464,47.2484273 C60.5549967,46.8581665 59.1646991,46.1026882 58.719984,44.5905391 L57.8443668,41.3635081 C58.0596678,42.096328 58.4350181,42.5766261 59.0259696,43.0560298 C60.0268037,43.7903404 61.1531549,44.110241 62.3834031,44.2697441 C63.4542025,44.3860174 64.4268103,44.361272 65.4904029,44.2238311 C66.8599812,44.0193093 68.0905297,43.676154 69.3559107,43.148154 C70.5582328,42.5977938 71.5800865,41.9806509 72.5394819,41.0880298 C73.6451138,40.0126509 74.5621697,38.6158807 74.1657998,37.0116075" id="Fill-54" fill="#FFE5D7"></path>
                    <path d="M64.5870398,48.3919006 C63.6138315,48.3919006 62.6895689,48.2783106 61.7998385,48.0493416 C59.6864661,47.4533665 58.3859523,46.3785839 57.9343308,44.8196273 L57.0584133,41.5684472 C56.9407034,41.1343602 57.1977433,40.6999752 57.6220393,40.584 C58.0661538,40.4471553 58.5042627,40.6999752 58.6297798,41.1343602 C58.7829228,41.6599752 59.0396624,42.0055155 59.5402296,42.4148571 C60.2699106,42.9646211 61.1950741,43.2860124 62.494687,43.4687702 C63.4261564,43.5608944 64.3158868,43.5608944 65.3866861,43.4228571 C66.6796929,43.2398012 67.8471826,42.8978385 69.0290856,42.3933913 C70.2320083,41.8671801 71.1493645,41.2720994 71.9904495,40.492472 C73.1723526,39.3255652 73.6305803,38.2492919 73.3738406,37.2192298 C73.2690428,36.7824596 73.53389,36.3483727 73.9644919,36.2326957 C74.3953941,36.1191056 74.8404094,36.3710311 74.9590201,36.807205 L75.8280312,40.034236 C76.0781646,41.0428323 75.9526475,41.9593043 75.4244545,43.0352795 C75.0211781,43.7901615 74.548537,44.3613913 73.839275,45.0280248 C73.0468355,45.7366957 72.2129572,46.2864596 71.1355516,46.8368199 C69.9608553,47.4080497 68.8206911,47.7959255 67.5276844,48.0714037 C66.492318,48.2783106 65.5188095,48.3919006 64.5870398,48.3919006 M59.477471,44.2698634 L59.5056974,44.3858385 C59.7906633,45.3479255 60.6803937,46.0571925 62.2232337,46.4695155 C63.6973094,46.8582857 65.3311343,46.8582857 67.194073,46.4915776 C68.3408433,46.2402484 69.3699037,45.8950062 70.4121765,45.3938385 C71.3439461,44.9117516 72.0667207,44.4314534 72.734544,43.8354783 C73.3041756,43.3098634 73.6657131,42.8516273 73.9719989,42.2798012 C74.3125167,41.5925963 74.3953941,41.0428323 74.2497582,40.4471553 L74.2215318,40.3547329 C73.9299597,40.7923975 73.5612155,41.2258882 73.1168007,41.6599752 C72.1225728,42.5764472 71.0727931,43.2645466 69.6894019,43.8810932 C68.3543559,44.4529193 67.0613491,44.8196273 65.6085933,45.0280248 C64.3993647,45.1863354 63.3778112,45.1863354 62.293199,45.0733416 C61.1668477,44.9359006 60.2636047,44.6827826 59.477471,44.2698634" id="Fill-56" fill="#FF5100"></path>
                    <polygon id="Fill-58" fill="#FFFFFF" points="75.0420176 40.241918 74.1657998 37.0116075 74.1312676 36.8986137 74.0967353 36.8070857 74.0549964 36.6908124 74.9309139 39.921123 74.9654461 40.0126509 75.0074853 40.1256447"></polygon>
                    <path d="M75.0420176,41.0667429 C74.6876869,41.0667429 74.3606817,40.8377739 74.2561841,40.4710658 L74.2216519,40.3547925 L74.1384743,40.1258236 L73.269163,36.8987925 C73.1580593,36.4864696 73.3871731,36.0496994 73.8045626,35.9146435 C74.2288586,35.7772025 74.6597608,36.0037863 74.8198102,36.3949416 C74.8261161,36.4164075 74.9098943,36.6453764 74.917101,36.6695255 L75.827851,40.0342957 C75.9461614,40.4710658 75.6957277,40.9051528 75.264225,41.0214261 C75.1876535,41.0425938 75.111082,41.0667429 75.0420176,41.0667429" id="Fill-60" fill="#FF5100"></path>
                    <path d="M73.9156663,35.4316919 C76.5716452,36.1412571 78.1907563,37.5621764 78.6567913,39.2794435 C79.122526,41.0214559 78.4411901,43.0353689 76.4950737,44.9813068 C75.5008458,45.965754 74.2705976,46.8366112 72.9010194,47.5455801 C70.5654395,48.7798658 66.5615026,49.8126112 63.9541692,49.8588224 C62.5083197,49.8802882 61.111416,49.7431453 59.8391285,49.3999901 C57.1765435,48.688636 55.5640386,47.2704 55.0986042,45.5531329 C54.6322689,43.8141019 55.3136048,41.7978037 57.2603217,39.8512696 C59.206438,37.9285863 62.0428853,36.4620522 65.0598011,35.660959 C68.0695101,34.8604621 71.2599878,34.7230211 73.9156663,35.4316919 M75.0420176,40.2418286 C74.7150124,39.0501764 73.5961681,38.0663255 71.7539488,37.5621764 C69.9117294,37.0821764 67.7016667,37.1740025 65.6159201,37.7455304 C63.530774,38.2952944 61.5630375,39.3038907 60.2144789,40.6547478 C58.8659202,41.9805615 58.3932791,43.4014807 58.7202843,44.5904497 C59.0397825,45.7821019 60.158927,46.7659528 62.0011464,47.2483379 C65.6855851,48.2330832 70.8431988,46.8583752 73.540316,44.1775304 C74.8825688,42.8517168 75.3615158,41.4310957 75.0420176,40.2418286" id="Fill-62" fill="#FFB490"></path>
                    <path d="M63.5583397,50.6810534 C62.153929,50.6810534 60.8260897,50.4974012 59.6234673,50.1792894 C56.7593942,49.4220224 54.8754359,47.8663453 54.3058042,45.7582211 C53.7427788,43.6760348 54.5838637,41.3633888 56.683123,39.2794137 C58.6643721,37.3114137 61.5629774,35.7530534 64.8438395,34.8821963 C68.1250018,34.0137242 71.4205776,33.9227925 74.1312075,34.6314634 C76.9886744,35.4101963 78.8792389,36.9661714 79.4494711,39.0748919 C80.0052899,41.1555876 79.1714116,43.4688298 77.0787585,45.5531031 C76.0427916,46.5822708 74.7708045,47.4748919 73.2835163,48.2542211 C70.8293258,49.5594634 66.7353048,50.6127801 63.967922,50.6595876 C63.836099,50.6810534 63.6973695,50.6810534 63.5583397,50.6810534 M70.1831227,35.7772025 C71.4340903,35.7772025 72.6298062,35.9146435 73.7072118,36.2112894 C75.9872398,36.8072646 77.4613155,37.9747677 77.8642916,39.4836373 C78.2744745,40.9966807 77.5790254,42.7354137 75.917875,44.4076621 C75.0074253,45.3023702 73.8600544,46.1240348 72.5187025,46.8365814 C70.2942264,48.0037863 66.4428319,48.9876373 63.9333898,49.0579975 C62.5502989,49.0579975 61.2224596,48.9417242 60.0480635,48.6218236 C57.7746417,48.0252522 56.2942601,46.8583453 55.8909837,45.3479851 C55.4811011,43.8355379 56.1687429,42.0962087 57.8367997,40.4254509 C59.6168611,38.6622708 62.2587268,37.2407553 65.2681355,36.4405565 C66.9436993,36.0037863 68.6120564,35.7772025 70.1831227,35.7772025 M64.6219324,48.3919602 C63.6346109,48.3919602 62.6758161,48.2783702 61.7854851,48.0491031 C59.7141519,47.5002335 58.3448739,46.331836 57.9277847,44.7976248 C57.5106954,43.2646062 58.122066,41.5685068 59.6378807,40.0802087 C61.0419912,38.6834385 63.0856986,37.5621466 65.4005591,36.9447056 C67.722326,36.3481342 70.0506991,36.2786683 71.9622832,36.7825193 C74.0411234,37.3328795 75.4107017,38.4997863 75.8277909,40.0342957 L75.8343971,40.0342957 C76.2448802,41.5685068 75.6401158,43.2646062 74.1176949,44.7734758 C71.8448736,47.019041 68.0628438,48.3919602 64.6219324,48.3919602 M69.1684757,38.0662957 C68.1048831,38.0662957 66.9647189,38.2252025 65.8245548,38.5245317 C63.7877538,39.0748919 62.0010863,40.0128298 60.7915575,41.2259478 C59.7072455,42.3013267 59.2481169,43.4229168 59.5057574,44.3858981 C59.762497,45.323836 60.7287989,46.078718 62.2094808,46.4695752 C65.6368797,47.3857491 70.4605817,46.1028671 72.9565111,43.6065689 C74.0477296,42.5302957 74.5065578,41.4087056 74.2495179,40.4469168 C73.9921777,39.4836373 73.0330826,38.7535006 71.545194,38.3623453 C70.8158132,38.1578236 70.0161669,38.0662957 69.1684757,38.0662957" id="Fill-64" fill="#FF5100"></path>
                </g>
            </g>
        </g>
    </g>
</svg>